<svg width="150" height="44" viewBox="0 0 150 44" fill="none" xmlns="http://www.w3.org/2000/svg">
<path fill-rule="evenodd" clip-rule="evenodd" d="M70.2732 16.018C70.3541 13.527 68.3157 11.2547 64.02 11.1711C60.9827 11.1273 58.7271 12.185 58.5253 14.7124C58.3588 16.8208 59.0673 17.2397 60.4368 17.7847C61.1493 18.5481 66.9013 19.4755 68.0595 19.6809C69.7295 19.9795 73.3204 20.7357 75.2313 22.7151C78.7333 26.4248 77.1102 33.7166 73.3204 36.2036C70.7283 37.8883 67.1913 38.3105 63.8154 38.3515C62.2738 38.3964 58.6038 37.8456 56.3538 36.2036C53.647 34.2197 52.3114 31.1854 52.1097 28.2814H58.1864C58.1864 29.0795 58.4399 30.3445 59.4776 31.443C60.8499 32.8785 63.1096 33.3389 65.1905 33.2537C67.2756 33.2119 69.2303 32.5829 70.0226 31.8166C71.3555 30.5577 71.6484 28.1511 70.1471 26.6387C68.1435 24.5304 62.1478 24.5304 58.2329 23.1812C54.9353 22.0412 52.2329 19.6357 52.7314 14.6712C53.2312 9.77905 56.7273 6.15588 64.1501 6.15588C65.7702 6.15588 71.4384 6.28325 74.3994 10.0781C75.9834 12.1397 76.3991 15.0056 76.1516 16.018H70.2732Z" fill="#E3B15A"/>
<path fill-rule="evenodd" clip-rule="evenodd" d="M92.6568 26.6387C90.9893 27.6481 88.7452 27.5674 87.2397 27.8575C85.4515 28.1979 84.193 29.713 84.6996 31.5706C85.0341 32.9144 86.0689 33.8855 88.5725 33.4651C92.0295 32.9144 92.6568 30.4718 92.6568 27.9413V26.6387ZM93.3239 37.3851C92.9081 36.8378 92.6568 35.9104 92.6987 35.1088C90.6579 37.0457 88.8652 38.3515 85.4515 38.3515C80.8629 38.3515 78.6127 35.7424 78.7798 31.3158C78.9056 28.1111 80.1544 24.9932 85.3243 24.1054C87.4874 24.0192 89.8189 23.5196 91.1994 23.0551C92.2373 22.6727 92.7409 21.5798 92.6568 20.4809C92.6568 19.0508 91.4862 18.4164 88.8202 18.4164C85.4863 18.4164 85.0683 20.4809 84.9894 22.1289H79.4877C79.5751 14.8382 85.7398 14.1627 88.8202 14.1627C91.0736 14.1627 93.031 14.538 94.1595 15.0056C96.4098 15.9315 98.1977 17.7847 98.1977 21.4128V33.8855C98.1585 34.8967 98.744 35.9104 99.4885 36.5798V37.3851H93.3239Z" fill="#E3B15A"/>
<path fill-rule="evenodd" clip-rule="evenodd" d="M100.485 15.0056H103.657V12.3491C103.657 8.93965 105.367 6.66138 109.156 6.66138H112.785V11.0439H110.745C109.953 11.0439 109.49 11.5535 109.49 12.6011V15.0056H112.953V18.9235H109.49V37.3852H103.657V18.9235H100.485V15.0056Z" fill="#E3B15A"/>
<path fill-rule="evenodd" clip-rule="evenodd" d="M115.483 14.538H121.321V18.9688H121.402C121.776 17.6193 122.069 16.8207 124.11 15.3823C125.111 14.6219 126.446 13.8644 128.278 14.1628V20.1893C125.782 19.8963 122.027 19.5591 121.321 24.5304V37.3852H115.483V14.538Z" fill="#E3B15A"/>
<path fill-rule="evenodd" clip-rule="evenodd" d="M143.152 26.6387C141.484 27.6481 139.234 27.5674 137.741 27.8575C135.949 28.1979 134.701 29.713 135.195 31.5706C135.53 32.9144 136.576 33.8855 139.069 33.4651C142.529 32.9144 143.152 30.4718 143.152 27.9413V26.6387ZM143.825 37.3851C143.405 36.8378 143.152 35.9104 143.195 35.1088C141.152 37.0457 139.364 38.3515 135.949 38.3515C131.361 38.3515 129.106 35.7424 129.28 31.3158C129.404 28.1111 130.649 24.9932 135.823 24.1054C137.989 24.0192 140.323 23.5196 141.695 23.0551C142.746 22.6727 143.243 21.5798 143.152 20.4809C143.152 19.0508 141.988 18.4164 139.322 18.4164C135.985 18.4164 135.573 20.4809 135.485 22.1289H129.989C130.068 14.8382 136.233 14.1627 139.322 14.1627C141.572 14.1627 143.53 14.538 144.657 15.0056C146.902 15.9315 148.696 17.7847 148.696 21.4128V33.8855C148.655 34.8967 149.238 35.9104 149.99 36.5798V37.3851H143.825Z" fill="#E3B15A"/>
<path fill-rule="evenodd" clip-rule="evenodd" d="M21.6765 24.7519C21.5823 22.6562 20.7995 21.3862 20.0259 20.6212H20.0353C21.0615 20.6212 22.4895 21.5236 22.4895 22.9675C22.4895 23.7646 22.2199 24.3455 21.6765 24.7519ZM18.2058 28.7657V26.754C18.9471 26.7374 19.6187 26.6687 20.219 26.5503C19.9293 27.9192 19.1741 28.5683 18.2058 28.7657ZM15.4047 26.4213C15.7831 26.554 16.2532 26.6613 16.8671 26.7167V28.7245C16.1277 28.4608 15.4893 27.7115 15.4047 26.4213ZM15.3946 20.6212H16.8671V25.4765C16.3177 25.4033 15.8294 25.2695 15.3946 25.0917V20.6212ZM13.0743 17.3724C13.0743 16.6445 13.4055 16.0144 14.0559 15.5596V19.1182C13.4327 18.7577 13.0743 18.0953 13.0743 17.3724ZM16.8671 11.7621V13.5858C16.3736 13.5998 15.8979 13.6527 15.4484 13.7426C15.6102 12.8353 16.1308 12.0822 16.8671 11.7621ZM19.736 14.0291C19.3248 13.8842 18.8256 13.737 18.2058 13.6529V11.6821C18.9229 11.9186 19.5292 12.659 19.736 14.0291ZM18.2058 19.3432V14.8755C18.765 14.9536 19.3034 15.0908 19.8097 15.2768C19.7576 17.2082 18.7823 18.9991 18.2058 19.3432ZM15.3946 14.9873C15.8265 14.8829 16.3175 14.8197 16.8671 14.8043V19.4028H15.3946V14.9873ZM20.3465 25.3157C19.7568 25.4516 19.0438 25.521 18.2058 25.536V20.6333C18.8178 20.7748 20.3477 22.2634 20.3477 25.1785C20.3477 25.2247 20.3472 25.2705 20.3465 25.3157ZM19.8121 19.4028H19.7449C20.4153 18.5671 20.9488 17.2435 21.1044 15.8979C21.5752 16.1834 21.9972 16.5135 22.3556 16.876C22.534 17.0565 22.6233 17.1467 22.7572 17.1467C23.0249 17.1467 23.1587 16.9211 23.0249 16.6955C22.668 16.1089 22.534 15.6125 22.534 14.9808C22.534 14.5747 22.668 14.2137 22.7572 13.9881C22.8464 13.7625 22.7572 13.5368 22.4895 13.5368C22.2663 13.5368 22.2218 13.7173 22.1324 13.8527C21.9611 14.156 21.6248 14.4168 21.1245 14.4373C20.9318 11.9989 19.6988 10.8048 18.4271 10.4754C18.8836 9.37628 20.0147 8.70169 21.5077 8.39288C21.7309 8.34773 21.9094 8.25753 21.9094 8.07701C21.9094 7.85145 21.7309 7.76114 21.5077 7.76114C21.0169 7.76114 20.3029 8.03185 19.7228 8.21237C18.8305 8.48308 18.0719 8.6636 17.4025 8.6636C15.9747 8.6636 14.7252 8.03185 14.3236 8.03185C14.1452 8.03185 14.0113 8.16721 14.0113 8.34773C14.0113 8.48308 14.1006 8.61844 14.3683 8.70876C15.5544 9.09781 16.326 9.71972 16.6665 10.5579C15.9617 10.8196 15.3773 11.3518 14.9777 12.0472C14.5028 11.079 13.9015 10.649 13.0296 10.649C12.1818 10.649 11.5124 11.2807 11.5124 12.0478C11.5124 12.5892 11.8695 12.9954 12.271 12.9954C12.4495 12.9954 12.5387 12.9052 12.5387 12.7698C12.5387 12.5892 12.4495 12.5442 12.4495 12.2735C12.4495 12.0027 12.6726 11.7771 13.0296 11.7771C13.565 11.7771 14.0559 12.3186 14.0559 13.8075V14.1784C12.6522 14.807 11.7356 15.9148 11.7356 17.4174C11.7356 18.961 12.7422 20.1153 14.0559 20.4905V24.2973C13.0549 23.4826 12.4943 22.4295 12.1372 21.659C12.048 21.4785 11.9587 21.2528 11.7356 21.2528C11.4679 21.2528 11.3786 21.5236 11.5124 21.8395C11.6463 22.1553 11.7356 22.6517 11.7356 23.1029C11.7356 23.6444 11.5571 24.1407 11.2001 24.5017C11.0217 24.6821 10.8877 24.8175 10.8877 24.953C10.8877 25.1334 11.0217 25.2237 11.1555 25.2237C11.4232 25.2237 11.7356 24.9078 12.3157 24.9078C12.6726 24.9078 13.1188 25.0883 13.8329 25.5396C13.9077 25.5841 13.9815 25.6319 14.0559 25.6816V26.2164V26.8481C14.0559 27.4799 13.7882 27.8859 13.2528 27.8859C12.8958 27.8859 12.6726 27.6152 12.6726 27.2542C12.6726 26.9835 12.8511 26.8933 12.8511 26.7579C12.8511 26.6224 12.7619 26.5322 12.5834 26.5322C12.3157 26.5322 11.8695 26.9383 11.8695 27.6152C11.8695 28.247 12.3157 29.0141 13.2528 29.0141C13.7834 29.0141 14.2818 28.851 14.7482 28.3871C15.1806 29.0934 15.939 29.7237 16.7969 29.9564C16.5619 31.1482 15.7486 32.1275 14.5915 32.1275C14.0113 32.1275 13.699 31.8117 13.699 31.4055C13.699 31.0896 13.9221 30.9092 14.1006 30.8189C14.3236 30.7287 14.5021 30.6835 14.5021 30.4128C14.5021 30.2774 14.4128 30.0969 13.9666 30.0969C13.1635 30.0969 12.4942 30.8189 12.4942 31.6763C12.4942 32.6238 13.1635 33.5263 14.5468 33.5263C15.7257 33.5263 16.7523 32.9416 17.4009 32.2045C18.1642 32.8282 19.3269 33.3457 19.9015 33.3457C20.0798 33.3457 20.2584 33.2555 20.2584 33.075C20.2584 32.8945 20.0798 32.7592 19.9015 32.669C18.875 32.1275 18.2058 31.3604 18.2058 30.0067V29.9844C19.7991 29.684 21.2892 28.3778 21.6187 26.1302C23.0687 25.5071 23.8281 24.4334 23.8281 22.9675C23.8281 20.8467 21.8647 19.4028 19.8121 19.4028ZM27.3978 32.1275C25.8361 32.1275 24.8098 31.2251 24.8098 29.8714C24.8098 28.7432 25.5684 27.8408 26.4608 27.8408C26.8177 27.8408 27.1301 27.9761 27.1301 28.3372C27.1301 28.5628 27.0409 28.7432 27.2639 28.7432C27.3978 28.7432 27.5318 28.6079 27.5318 28.247C27.5318 27.7957 27.1301 27.4347 26.55 27.4347H26.4161C26.5053 27.2542 26.5053 27.0737 26.5053 27.0286C26.5053 26.6224 26.1931 26.3969 25.8807 26.3969C25.5684 26.3969 25.256 26.5774 25.256 26.8029C25.256 26.8933 25.3006 26.9383 25.3898 26.9383C25.5237 26.9383 25.5684 26.8029 25.7915 26.8029C25.9699 26.8029 26.1038 26.8933 26.1038 27.1188C26.1038 27.4347 25.8361 27.5701 25.6129 27.7054C24.8991 28.1116 24.4082 28.9237 24.4082 29.8714C24.4082 31.1347 25.1221 31.947 26.1484 32.3079L25.479 33.3457C24.5867 33.3457 24.1405 34.0227 23.3373 35.4665C23.2481 35.1055 22.9802 34.8348 22.534 34.8348C22.0432 34.8348 21.7309 35.1958 21.7309 35.6921C21.7309 35.8276 21.8201 35.9178 21.9094 35.9178C22.0432 35.9178 22.1324 35.8276 22.1324 35.6921C22.1324 35.4665 22.2663 35.2409 22.534 35.2409C22.8464 35.2409 22.9802 35.4665 22.9802 35.7373C22.9802 36.0531 22.9357 36.2337 22.7125 36.5946C21.7755 38.1288 20.4814 38.8959 19.3659 38.8959C18.3843 38.8959 17.8042 38.3093 17.8042 37.7227C17.8042 37.1813 18.1166 36.73 18.652 36.73C19.009 36.73 19.2321 36.9556 19.2321 37.2715C19.2321 37.5422 19.009 37.5422 19.009 37.6775C19.009 37.7679 19.0982 37.8129 19.1874 37.8129C19.4552 37.8129 19.6336 37.497 19.6336 37.1813C19.6336 36.6849 19.2321 36.3239 18.652 36.3239C18.1166 36.3239 17.6703 36.6849 17.5364 37.0458C17.4025 36.6849 16.9563 36.3239 16.4209 36.3239C15.8408 36.3239 15.4392 36.6849 15.4392 37.1813C15.4392 37.497 15.6176 37.8129 15.8855 37.8129C15.9747 37.8129 16.0639 37.7679 16.0639 37.6775C16.0639 37.5422 15.8408 37.5422 15.8408 37.2715C15.8408 36.9556 16.0639 36.73 16.4209 36.73C16.9563 36.73 17.2687 37.1813 17.2687 37.7227C17.2687 38.3093 16.6886 38.8959 15.7069 38.8959C14.5914 38.8959 13.2973 38.1288 12.3603 36.5946C12.1372 36.2337 12.0925 36.0531 12.0925 35.7373C12.0925 35.4665 12.2264 35.2409 12.5387 35.2409C12.8066 35.2409 12.9404 35.4665 12.9404 35.6921C12.9404 35.8276 13.0296 35.9178 13.1635 35.9178C13.2528 35.9178 13.342 35.8276 13.342 35.6921C13.342 35.1958 13.0296 34.8348 12.5387 34.8348C12.0925 34.8348 11.8248 35.1055 11.7356 35.4665C10.9324 34.0227 10.4861 33.3457 9.5937 33.3457L8.92443 32.3079C9.95072 31.947 10.6647 31.1347 10.6647 29.8714C10.6647 28.9237 10.1738 28.1116 9.45985 27.7054C9.23679 27.5701 8.96897 27.4347 8.96897 27.1188C8.96897 26.8933 9.10282 26.8029 9.28145 26.8029C9.5045 26.8029 9.54905 26.9383 9.68301 26.9383C9.77221 26.9383 9.81687 26.8933 9.81687 26.8029C9.81687 26.5774 9.5045 26.3969 9.19214 26.3969C8.87977 26.3969 8.5674 26.6224 8.5674 27.0286C8.5674 27.0737 8.5674 27.2542 8.6566 27.4347H8.52286C7.94279 27.4347 7.54111 27.7957 7.54111 28.247C7.54111 28.6079 7.67496 28.7432 7.80882 28.7432C8.03199 28.7432 7.94279 28.5628 7.94279 28.3372C7.94279 27.9761 8.25504 27.8408 8.61206 27.8408C9.5045 27.8408 10.2631 28.7432 10.2631 29.8714C10.2631 31.2251 9.23679 32.1275 7.67496 32.1275C5.84553 32.1275 4.46221 30.7738 4.46221 28.8786C4.46221 27.0286 5.53317 25.7651 6.73798 24.6371L7.76427 23.6444C9.05828 22.4261 9.5937 21.1626 9.5937 19.5834C9.5937 17.8686 8.5674 15.9735 6.42561 15.0259C6.87183 14.8905 7.13954 14.4393 7.13954 13.8979C7.13954 13.5368 7.00569 13.3113 7.00569 13.0404C7.00569 12.499 7.31805 12.1831 7.76427 12.1831C8.16584 12.1831 8.43355 12.499 8.43355 12.8149C8.43355 13.0856 8.25504 13.3113 7.94279 13.3113C7.80882 13.3113 7.71962 13.3113 7.71962 13.4466C7.71962 13.582 7.85347 13.6271 8.03198 13.6271C8.5674 13.6271 8.83523 13.1759 8.83523 12.9502C8.92443 12.9954 9.01363 13.0404 9.14748 13.0404C9.45985 13.0404 9.68301 12.8149 9.68301 12.499C9.68301 12.4088 9.63836 12.2735 9.5045 12.2735C9.41519 12.2735 9.37065 12.3637 9.37065 12.454C9.37065 12.5892 9.28145 12.6795 9.14748 12.6795C8.96897 12.6795 8.83523 12.5442 8.74592 12.3637C8.5674 12.0478 8.21038 11.7771 7.76427 11.7771C7.1842 11.7771 6.73798 12.1831 6.64866 12.7247C6.38095 12.454 6.06859 12.1831 5.62237 11.9124C5.97939 11.6869 6.29176 11.5063 6.64866 11.2356C7.1842 10.8294 7.67496 10.3782 8.21038 9.79162L10.6647 7.08435C12.8066 4.69283 14.1898 4.10613 15.5284 4.10613C16.6886 4.10613 17.2687 4.69283 17.2687 5.36962C17.2687 5.86578 17.058 6.23399 16.7235 6.41589C16.5335 6.22125 16.394 5.9554 16.3317 5.64034C16.287 5.41478 16.2424 5.41478 16.1977 5.41478C16.1085 5.41478 16.1085 5.50498 16.1085 5.59529C16.1085 5.98122 16.1995 6.29235 16.3486 6.53342C16.2996 6.53944 16.2494 6.5428 16.1977 6.5428C15.7515 6.5428 15.4838 6.31724 15.4838 6.04653C15.4838 6.00137 15.4838 5.91105 15.5731 5.82085C15.6623 5.73065 15.6176 5.68549 15.5731 5.68549C15.3946 5.68549 15.2161 5.91105 15.2161 6.18188C15.2161 6.49776 15.4838 6.94899 16.2424 6.94899C16.3547 6.94899 16.5039 6.93452 16.6642 6.88577C16.9159 7.08064 17.2261 7.17455 17.5364 7.17455C17.8467 7.17455 18.157 7.08064 18.4086 6.88577C18.5689 6.93452 18.7181 6.94899 18.8305 6.94899C19.5891 6.94899 19.8567 6.49776 19.8567 6.18188C19.8567 5.91105 19.6783 5.68549 19.4998 5.68549C19.4552 5.68549 19.4105 5.73065 19.4998 5.82085C19.5891 5.91105 19.5891 6.00137 19.5891 6.04653C19.5891 6.31724 19.3213 6.5428 18.875 6.5428C18.8234 6.5428 18.7732 6.53944 18.7242 6.53342C18.8733 6.29235 18.9642 5.98122 18.9642 5.59529C18.9642 5.50498 18.9642 5.41478 18.875 5.41478C18.8305 5.41478 18.7858 5.41478 18.7412 5.64034C18.6789 5.9554 18.5393 6.22125 18.3494 6.41589C18.0148 6.23399 17.8042 5.86578 17.8042 5.36962C17.8042 4.69283 18.3843 4.10613 19.5444 4.10613C20.8831 4.10613 22.2663 4.69283 24.4082 7.08435L26.8624 9.79162C27.3532 10.3782 27.8887 10.8294 28.4242 11.2356C28.7811 11.5063 29.0935 11.6869 29.4505 11.9124C29.0043 12.1831 28.6919 12.454 28.4242 12.7247C28.3349 12.1831 27.8887 11.7771 27.3086 11.7771C26.8624 11.7771 26.5053 12.0478 26.3269 12.3637C26.2376 12.5442 26.1038 12.6795 25.9253 12.6795C25.7915 12.6795 25.7022 12.5892 25.7022 12.454C25.7022 12.3637 25.6576 12.2735 25.5684 12.2735C25.4345 12.2735 25.3898 12.4088 25.3898 12.499C25.3898 12.8149 25.6129 13.0404 25.9253 13.0404C26.0591 13.0404 26.1484 12.9954 26.2376 12.9502C26.2376 13.1759 26.5053 13.6271 27.0409 13.6271C27.2194 13.6271 27.3532 13.582 27.3532 13.4466C27.3532 13.3113 27.2639 13.3113 27.1301 13.3113C26.8177 13.3113 26.6393 13.1308 26.6393 12.8149C26.6393 12.499 26.907 12.1831 27.3086 12.1831C27.7548 12.1831 28.0672 12.499 28.0672 13.0404C28.0672 13.3113 27.9333 13.5368 27.9333 13.8979C27.9333 14.4393 28.201 14.8905 28.6473 15.0259C26.5053 15.9735 25.479 17.8686 25.479 19.5834C25.479 21.1626 26.0146 22.4261 27.3086 23.6444L28.3349 24.6371C29.5397 25.7651 30.6106 27.0286 30.6106 28.8786C30.6106 30.7738 29.2273 32.1275 27.3978 32.1275ZM17.5364 40.5203C17.1795 39.7983 16.7779 39.3471 16.5994 39.1216C17.0456 38.941 17.358 38.6252 17.5364 38.2641C17.7149 38.6252 18.0273 38.941 18.4735 39.1216C18.295 39.3471 17.8934 39.7983 17.5364 40.5203ZM17.9876 6.67121C17.8476 6.73432 17.6953 6.76836 17.5364 6.76836C17.3774 6.76836 17.2253 6.73432 17.0852 6.67121C17.2595 6.53782 17.4207 6.34272 17.5364 6.06135C17.6521 6.34272 17.8134 6.53782 17.9876 6.67121ZM31.3246 26.9383C31.0569 26.9383 30.8337 27.0737 30.7445 27.2542C30.3875 26.442 30.0305 25.6749 28.4687 24.2309C28.5581 24.2761 28.8704 24.3212 29.0935 24.3212C29.5844 24.3212 30.1198 24.1859 30.4321 23.87C30.5213 24.1859 30.789 24.3663 31.1015 24.3663C31.5923 24.3663 31.7708 24.0505 31.7708 23.6895C31.7708 23.5541 31.7261 23.4188 31.5923 23.4188C31.3246 23.4188 31.5476 23.9602 31.1015 23.9602C30.9229 23.9602 30.789 23.8248 30.789 23.5993C30.789 23.3736 30.9229 23.1029 30.9229 22.787C30.9229 22.0651 30.4767 21.5687 29.9413 21.4333C29.6289 21.3431 29.4505 21.1175 29.4505 20.8467C29.4505 20.4858 29.7182 20.4407 29.8967 20.4407C30.0751 20.4407 30.2091 20.4858 30.2091 20.3503C30.2091 20.215 30.0751 20.1248 29.8074 20.1248C29.495 20.1248 29.0488 20.3503 29.0488 20.8467C29.0488 21.0273 29.0935 21.2078 29.272 21.3883C28.8704 21.4785 28.5134 21.7944 28.5134 22.2907C28.5134 22.6065 28.6026 22.9224 28.8258 22.9224C29.0935 22.9224 28.8704 22.6968 28.8704 22.3358C28.8704 21.9297 29.2273 21.7492 29.5844 21.7492C30.0751 21.7492 30.5213 22.2004 30.5213 22.787C30.5213 23.4638 29.9859 23.915 29.1381 23.915C28.6473 23.915 27.9333 23.8248 27.3532 23.1481C26.4161 22.1102 25.8807 21.2078 25.8807 19.5834C25.8807 17.5077 27.3532 15.7028 29.495 15.1162C29.9413 14.9808 30.2983 14.5747 30.2983 14.0332C30.2983 13.582 30.0305 13.2211 29.5844 13.2211C29.4058 13.2211 29.272 13.2661 29.272 13.4015C29.272 13.5368 29.4058 13.5368 29.495 13.5368C29.6735 13.5368 29.8967 13.7173 29.8967 14.0332C29.8967 14.4845 29.5397 14.7552 29.1381 14.7552C28.6473 14.7552 28.3349 14.3941 28.3349 13.8979C28.3349 12.9502 29.4505 12.3186 30.2983 11.9124C29.5397 11.5515 29.272 11.4161 28.6919 10.9649C28.5581 10.8294 28.5134 10.6941 28.5134 10.5137C28.5134 10.288 28.6473 10.1075 28.8258 10.1075C28.9596 10.1075 29.0488 10.1978 29.0488 10.3332C29.0488 10.4685 28.9596 10.4685 28.9596 10.5587C28.9596 10.649 29.0043 10.6941 29.0935 10.6941C29.1827 10.6941 29.4058 10.6039 29.4058 10.2429C29.4058 9.97214 29.2273 9.70142 28.8258 9.70142C28.4242 9.70142 28.1118 10.0173 28.1118 10.4685C27.7995 10.1978 27.4424 9.88194 27.1301 9.52091L25.7022 7.94165C25.3006 7.49042 25.5237 6.63312 26.1038 6.63312C26.4161 6.63312 26.55 6.85867 26.55 7.03919C26.55 7.44526 26.1484 7.26475 26.1484 7.49042C26.1484 7.58062 26.1931 7.67082 26.3269 7.67082C26.6393 7.67082 26.9516 7.44526 26.9516 6.99403C26.9516 6.58796 26.5947 6.22693 26.1038 6.22693C25.5237 6.22693 25.1221 6.67816 25.1221 7.30991L24.6759 6.81352C22.7125 4.64767 21.1061 3.70005 19.5444 3.70005C18.9642 3.70005 18.4288 3.88057 18.1166 4.10613C17.8487 3.79037 17.7149 3.56469 17.5364 3.29398C17.358 3.56469 17.2241 3.79037 16.9563 4.10613C16.6439 3.88057 16.1085 3.70005 15.5284 3.70005C13.9666 3.70005 12.3603 4.64767 10.3969 6.81352L9.95073 7.30991C9.95073 6.67816 9.54905 6.22693 8.96897 6.22693C8.47821 6.22693 8.12118 6.58796 8.12118 6.99403C8.12118 7.44526 8.43355 7.67082 8.74592 7.67082C8.87977 7.67082 8.92443 7.58062 8.92443 7.49042C8.92443 7.26475 8.52286 7.44526 8.52286 7.03919C8.52286 6.85867 8.6566 6.63312 8.96897 6.63312C9.54905 6.63312 9.77221 7.49042 9.37065 7.94165L7.94279 9.52091C7.63042 9.88194 7.2734 10.1978 6.96103 10.4685C6.96103 10.0173 6.64866 9.70142 6.2471 9.70142C5.84553 9.70142 5.66702 9.97214 5.66702 10.2429C5.66702 10.6039 5.89008 10.6941 5.97939 10.6941C6.06859 10.6941 6.11324 10.649 6.11324 10.5587C6.11324 10.4685 6.02393 10.4685 6.02393 10.3332C6.02393 10.1978 6.11324 10.1075 6.2471 10.1075C6.42561 10.1075 6.55947 10.288 6.55947 10.5137C6.55947 10.6941 6.51481 10.8294 6.38095 10.9649C5.84553 11.5063 5.53317 11.5515 4.77458 11.9124C5.62237 12.3186 6.73798 12.9502 6.73798 13.8979C6.73798 14.3941 6.42561 14.7552 5.93473 14.7552C5.53317 14.7552 5.17615 14.4845 5.17615 14.0332C5.17615 13.7173 5.39931 13.5368 5.57771 13.5368C5.66702 13.5368 5.80088 13.5368 5.80088 13.4015C5.80088 13.2661 5.66702 13.2211 5.48851 13.2211C5.04229 13.2211 4.77458 13.582 4.77458 14.0332C4.77458 14.5747 5.13149 14.9808 5.57771 15.1162C7.71962 15.7478 9.19214 17.5077 9.19214 19.5834C9.19214 21.2078 8.61206 22.0651 7.71962 23.1481C7.13954 23.8248 6.42561 23.915 5.93473 23.915C5.08695 23.915 4.55141 23.4638 4.55141 22.787C4.55141 22.2004 4.99763 21.7492 5.48851 21.7492C5.84553 21.7492 6.20244 21.9297 6.20244 22.3358C6.20244 22.6968 5.97939 22.9224 6.2471 22.9224C6.47015 22.9224 6.55947 22.6065 6.55947 22.2907C6.55947 21.7944 6.20244 21.4785 5.80088 21.3883C5.97939 21.2078 6.02393 21.0273 6.02393 20.8467C6.02393 20.3503 5.57771 20.1248 5.26546 20.1248C4.99763 20.1248 4.86378 20.215 4.86378 20.3503C4.86378 20.4858 4.99763 20.4407 5.17615 20.4407C5.35466 20.4407 5.62237 20.4858 5.62237 20.8467C5.62237 21.1175 5.44385 21.3431 5.13149 21.4333C4.59607 21.5687 4.14985 22.0651 4.14985 22.787C4.14985 23.1029 4.28382 23.3736 4.28382 23.5993C4.28382 23.8248 4.14985 23.9602 3.97134 23.9602C3.52523 23.9602 3.74828 23.4188 3.48057 23.4188C3.3466 23.4188 3.30206 23.5541 3.30206 23.6895C3.30206 24.0505 3.48057 24.3663 3.97134 24.3663C4.28382 24.3663 4.55141 24.1859 4.64073 23.87C4.95309 24.1859 5.48851 24.3212 5.97939 24.3212C6.20244 24.3212 6.51481 24.2761 6.60412 24.2309C5.04229 25.6749 4.68527 26.442 4.32836 27.2542C4.23905 27.0737 4.01599 26.9383 3.74828 26.9383C3.30206 26.9383 3.07901 27.2091 3.07901 27.6152C3.07901 27.7054 3.07901 27.9761 3.30206 27.9761C3.48057 27.9761 3.39137 27.7957 3.39137 27.6604C3.39137 27.4799 3.52523 27.3445 3.74828 27.3445C4.10519 27.3445 4.1945 27.6604 4.10519 28.1566C4.06065 28.3823 4.06065 28.653 4.06065 28.8786C4.06065 30.9994 5.62237 32.5336 7.67496 32.5336C7.98733 32.5336 8.25504 32.4884 8.5674 32.4433L9.19214 33.3909C8.74592 33.5263 8.43355 33.9323 8.43355 34.3836C8.43355 34.9703 8.87977 35.4214 9.45985 35.4214C9.81687 35.4214 10.0846 35.2409 10.0846 35.0605C10.0846 34.9251 9.99527 34.88 9.90607 34.88C9.77221 34.88 9.77221 35.0153 9.45985 35.0153C9.10282 35.0153 8.83523 34.7446 8.83523 34.3836C8.83523 34.0227 9.14748 33.7519 9.5937 33.7519C10.4415 33.7519 10.8432 34.7446 11.4232 35.7373L12.0033 36.73C12.9404 38.3545 14.4575 39.302 15.7069 39.302C15.8855 39.302 16.0639 39.302 16.2424 39.2569C16.7779 39.7983 17.3133 40.7911 17.5364 41.2422C17.7595 40.7911 18.295 39.7983 18.8305 39.2569C19.009 39.302 19.1874 39.302 19.3659 39.302C20.6153 39.302 22.1324 38.3545 23.0695 36.73L23.6496 35.7373C24.2297 34.7446 24.6313 33.7519 25.479 33.7519C25.9253 33.7519 26.2376 34.0227 26.2376 34.3836C26.2376 34.7446 25.9699 35.0153 25.6129 35.0153C25.3006 35.0153 25.3006 34.88 25.1667 34.88C25.0775 34.88 24.9883 34.9251 24.9883 35.0605C24.9883 35.2409 25.256 35.4214 25.6129 35.4214C26.1931 35.4214 26.6393 34.9703 26.6393 34.3836C26.6393 33.9323 26.3269 33.5263 25.8807 33.3909L26.5053 32.4433C26.8177 32.4884 27.0855 32.5336 27.3978 32.5336C29.4505 32.5336 31.0122 30.9994 31.0122 28.8786C31.0122 28.653 31.0122 28.3823 30.9676 28.1566C30.8784 27.6604 30.9676 27.3445 31.3246 27.3445C31.5476 27.3445 31.6815 27.4799 31.6815 27.6604C31.6815 27.7957 31.5923 27.9761 31.7708 27.9761C31.9939 27.9761 31.9939 27.7054 31.9939 27.6152C31.9939 27.2091 31.7708 26.9383 31.3246 26.9383ZM30.1644 34.6994C28.201 36.73 25.3006 38.1739 22.534 39.5276C20.7046 40.4301 18.9197 41.3326 17.5364 42.4154C16.1532 41.3326 14.3683 40.4301 12.5387 39.5276C9.77221 38.1739 6.87183 36.73 4.90843 34.6994C2.40962 32.1275 1.20481 29.5103 1.20481 26.5322C1.20481 24.0054 2.18656 21.8846 4.41756 19.0419C4.59607 18.8163 4.77458 18.5907 4.77458 18.4101C4.77458 18.2297 4.59607 17.8686 4.50687 17.6882L2.94515 14.2588C2.58813 13.4917 2.23111 12.7698 2.23111 12.0027C2.23111 11.371 2.63279 10.9198 3.16821 10.4685L5.39931 8.43793C5.48851 8.34773 5.48851 8.21237 5.44385 8.12205L4.72992 6.63312C4.64073 6.4526 4.64073 6.31724 4.77458 6.22693C6.96103 4.73787 8.79057 4.28664 11.4232 3.56469C13.9221 2.88791 16.1532 2.3012 17.5364 1.39885C18.9197 2.3012 21.1508 2.88791 23.6496 3.56469C26.2823 4.28664 28.0672 4.82819 30.2983 6.22693C30.4321 6.31724 30.4321 6.4526 30.3429 6.63312L29.6289 8.12205C29.5844 8.21237 29.5844 8.34773 29.6735 8.43793L31.9047 10.4685C32.4401 10.9198 32.8418 11.371 32.8418 12.0027C32.8418 12.7698 32.4847 13.4917 32.1277 14.2588L30.566 17.6882C30.4767 17.8686 30.2983 18.2297 30.2983 18.4101C30.2983 18.5907 30.4767 18.8163 30.6553 19.0419C33.0648 21.7492 33.8681 24.0054 33.8681 26.5322C33.8681 29.5103 32.6632 32.1275 30.1644 34.6994ZM32.2616 19.1772C31.86 18.6809 31.6369 18.4552 31.6369 18.2748C31.6369 18.0942 31.7708 17.8236 31.9047 17.5077L33.2433 14.5296C33.6449 13.6271 34.0019 12.86 34.0019 11.9124C34.0019 11.2356 33.7342 10.5587 33.0648 9.97214L31.1461 8.30257C30.9676 8.16721 30.9676 7.94165 31.0569 7.76114L31.7708 6.13673C31.8153 6.04653 31.8153 5.91105 31.6815 5.82085C29.495 4.3318 26.9962 3.42934 24.6313 2.75243C22.2663 2.1208 19.0982 1.21834 17.5364 0C15.9747 1.21834 12.8066 2.07564 10.4415 2.75243C8.07664 3.42934 5.57771 4.3318 3.39137 5.82085C3.2574 5.91105 3.2574 6.04653 3.30206 6.13673L4.01599 7.76114C4.10519 7.94165 4.10519 8.16721 3.92679 8.30257L2.00805 9.97214C1.33866 10.5587 1.07095 11.2356 1.07095 11.9124C1.07095 12.86 1.42798 13.6271 1.82954 14.5296L3.16821 17.5077C3.30206 17.8236 3.43592 18.0942 3.43592 18.2748C3.43592 18.4552 3.21275 18.6809 2.81118 19.1772C0.803244 21.704 0 23.7797 0 26.5322C0 30.3676 1.8742 33.3007 4.01599 35.5117C6.20244 37.7679 9.23679 39.2569 12.0033 40.6105C13.8329 41.513 15.7515 42.4154 17.5364 43.8594C19.3213 42.4154 21.24 41.513 23.0695 40.6105C25.8361 39.2569 28.915 37.7679 31.0569 35.5117C33.1987 33.3007 35.0727 30.3676 35.0727 26.5322C35.0727 23.7797 34.2696 21.704 32.2616 19.1772Z" fill="#E3B15A"/>
</svg>
