<svg width="40" height="42" viewBox="0 0 40 42" fill="none" xmlns="http://www.w3.org/2000/svg">
<path d="M39.2708 8.61328L29.0729 0.574219C28.6042 0.205078 27.9687 0 27.3021 0H26.6667V10.5H40V9.99961C40 9.48281 39.7396 8.98242 39.2708 8.61328ZM23.3333 11.1562V0H2.5C1.11458 0 0 0.877734 0 1.96875V40.0312C0 41.1223 1.11458 42 2.5 42H37.5C38.8854 42 40 41.1223 40 40.0312V13.125H25.8333C24.4583 13.125 23.3333 12.2391 23.3333 11.1562ZM6.66667 5.90625C6.66667 5.54367 7.03958 5.25 7.5 5.25H15.8333C16.2937 5.25 16.6667 5.54367 16.6667 5.90625V7.21875C16.6667 7.58133 16.2937 7.875 15.8333 7.875H7.5C7.03958 7.875 6.66667 7.58133 6.66667 7.21875V5.90625ZM6.66667 12.4688V11.1562C6.66667 10.7937 7.03958 10.5 7.5 10.5H15.8333C16.2937 10.5 16.6667 10.7937 16.6667 11.1562V12.4688C16.6667 12.8313 16.2937 13.125 15.8333 13.125H7.5C7.03958 13.125 6.66667 12.8313 6.66667 12.4688ZM21.6667 34.1152V36.0938C21.6667 36.4563 21.2937 36.75 20.8333 36.75H19.1667C18.7062 36.75 18.3333 36.4563 18.3333 36.0938V34.1012C17.1573 34.0536 16.0135 33.7304 15.0656 33.1702C14.6594 32.9298 14.6385 32.4507 15.0062 32.1743L16.2302 31.2547C16.5187 31.0382 16.9479 31.0283 17.2854 31.1948C17.6885 31.3934 18.1458 31.5 18.6208 31.5H21.549C22.226 31.5 22.7781 31.0144 22.7781 30.418C22.7781 29.9299 22.4021 29.5001 21.8646 29.3737L17.1771 28.2663C15.2406 27.8086 13.8875 26.3452 13.8875 24.707C13.8875 22.6956 15.8719 21.0615 18.3323 21.0098V19.0312C18.3323 18.6687 18.7052 18.375 19.1656 18.375H20.8323C21.2927 18.375 21.6656 18.6687 21.6656 19.0312V21.0238C22.8417 21.0714 23.9854 21.3938 24.9333 21.9548C25.3396 22.1952 25.3604 22.6743 24.9927 22.9507L23.7687 23.8703C23.4802 24.0868 23.051 24.0967 22.7135 23.9302C22.3104 23.7308 21.8531 23.625 21.3781 23.625H18.45C17.7729 23.625 17.2208 24.1106 17.2208 24.707C17.2208 25.1951 17.5969 25.6249 18.1344 25.7513L22.8219 26.8587C24.7583 27.3164 26.1115 28.7798 26.1115 30.418C26.1115 32.4302 24.1271 34.0635 21.6667 34.1152Z" fill="white"/>
</svg>
