<svg width="44" height="38" viewBox="0 0 44 38" fill="none" xmlns="http://www.w3.org/2000/svg">
<g clip-path="url(#clip0)">
<path d="M42.6237 17.813H25.2074C24.4484 17.813 23.8325 17.2811 23.8325 16.6256C23.8325 15.9701 24.4484 15.4381 25.2074 15.4381H42.6237C43.3826 15.4381 43.9986 15.9701 43.9986 16.6256C43.9986 17.2811 43.3826 17.813 42.6237 17.813Z" fill="white"/>
<path d="M35.7489 23.7504C35.3968 23.7504 35.045 23.6347 34.7771 23.4022C34.24 22.9381 34.24 22.1861 34.7771 21.7222L40.6804 16.6242L34.7771 11.5259C34.24 11.062 34.24 10.31 34.7771 9.84615C35.3145 9.38201 36.1853 9.38201 36.7224 9.84615L43.5972 15.7835C44.1342 16.2473 44.1342 16.9993 43.5972 17.4632L36.7224 23.4005C36.4528 23.6347 36.101 23.7504 35.7489 23.7504Z" fill="white"/>
<path d="M14.6663 38.0013C14.2739 38.0013 13.9016 37.9537 13.5297 37.854L2.49681 34.6795C0.995635 34.2267 0 33.0186 0 31.6682V3.16911C0 1.4227 1.64451 0.00244141 3.66666 0.00244141C4.05874 0.00244141 4.43101 0.0499863 4.80329 0.149715L15.8358 3.32421C17.3373 3.77704 18.3326 4.98509 18.3326 6.33548V34.8346C18.3326 36.581 16.6885 38.0013 14.6663 38.0013ZM3.66666 2.37737C3.16247 2.37737 2.74991 2.73366 2.74991 3.16911V31.6682C2.74991 32.0054 3.01208 32.3188 3.38603 32.4313L14.3672 35.5915C14.4461 35.6136 14.5488 35.6263 14.6663 35.6263C15.1705 35.6263 15.5827 35.27 15.5827 34.8346V6.33548C15.5827 5.99832 15.3206 5.68493 14.9466 5.57244L3.96542 2.41216C3.88654 2.39012 3.78382 2.37737 3.66666 2.37737Z" fill="white"/>
<path d="M27.9574 12.6681C27.1984 12.6681 26.5824 12.1361 26.5824 11.4806V4.35584C26.5824 3.26491 25.5542 2.37664 24.2911 2.37664H3.66671C2.90773 2.37664 2.29175 1.84465 2.29175 1.18917C2.29175 0.53369 2.90773 0.00170898 3.66671 0.00170898H24.2911C27.0722 0.00170898 29.3323 1.95395 29.3323 4.35584V11.4806C29.3323 12.1361 28.7164 12.6681 27.9574 12.6681Z" fill="white"/>
<path d="M24.291 33.2501H16.9577C16.1987 33.2501 15.5828 32.7181 15.5828 32.0626C15.5828 31.4072 16.1987 30.8752 16.9577 30.8752H24.291C25.5542 30.8752 26.5824 29.9869 26.5824 28.896V21.7712C26.5824 21.1157 27.1984 20.5837 27.9574 20.5837C28.7164 20.5837 29.3323 21.1157 29.3323 21.7712V28.896C29.3323 31.2979 27.0722 33.2501 24.291 33.2501Z" fill="white"/>
</g>
<defs>
<clipPath id="clip0">
<rect width="44" height="38" fill="white"/>
</clipPath>
</defs>
</svg>
