<svg width="103" height="33" viewBox="0 0 103 33" fill="none" xmlns="http://www.w3.org/2000/svg">
<path fill-rule="evenodd" clip-rule="evenodd" d="M48.2573 12.0521C48.3129 10.1779 46.9131 8.46818 43.9632 8.40528C41.8774 8.37235 40.3285 9.1682 40.1899 11.0698C40.0756 12.6562 40.5621 12.9714 41.5026 13.3814C41.9918 13.9558 45.9418 14.6536 46.7371 14.8081C47.884 15.0328 50.3498 15.6018 51.6621 17.091C54.067 19.8823 52.9524 25.3686 50.3498 27.2399C48.5699 28.5075 46.141 28.8251 43.8227 28.8559C42.7641 28.8897 40.2438 28.4753 38.6987 27.2399C36.8399 25.7471 35.9228 23.4641 35.7842 21.2792H39.9572C39.9572 21.8797 40.1313 22.8315 40.8439 23.658C41.7862 24.738 43.338 25.0844 44.767 25.0204C46.1988 24.9889 47.5411 24.5156 48.0853 23.939C49.0005 22.9919 49.2017 21.1811 48.1707 20.0432C46.7949 18.4569 42.6775 18.4569 39.9891 17.4418C37.7246 16.584 35.8688 14.7741 36.2112 11.0388C36.5544 7.35792 38.9552 4.63184 44.0525 4.63184C45.1651 4.63184 49.0575 4.72767 51.0909 7.58295C52.1786 9.13405 52.4641 11.2904 52.2941 12.0521H48.2573Z" fill="#E3B15A"/>
<path fill-rule="evenodd" clip-rule="evenodd" d="M63.6284 20.0431C62.4833 20.8026 60.9422 20.7419 59.9084 20.9601C58.6804 21.2163 57.8162 22.3562 58.1641 23.7539C58.3938 24.7649 59.1044 25.4956 60.8237 25.1793C63.1976 24.7649 63.6284 22.9271 63.6284 21.0232V20.0431ZM64.0865 28.1287C63.8009 27.7169 63.6284 27.0192 63.6571 26.416C62.2557 27.8734 61.0246 28.8558 58.6804 28.8558C55.5294 28.8558 53.9841 26.8928 54.0989 23.5622C54.1852 21.1509 55.0429 18.805 58.5931 18.1371C60.0785 18.0722 61.6796 17.6962 62.6275 17.3468C63.3403 17.059 63.6861 16.2368 63.6284 15.4099C63.6284 14.3339 62.8245 13.8566 60.9937 13.8566C58.7043 13.8566 58.4172 15.4099 58.3631 16.6499H54.585C54.645 11.1644 58.8784 10.6561 60.9937 10.6561C62.5412 10.6561 63.8853 10.9385 64.6603 11.2903C66.2056 11.987 67.4334 13.3813 67.4334 16.1111V25.4956C67.4064 26.2564 67.8085 27.0192 68.3198 27.5228V28.1287H64.0865Z" fill="#E3B15A"/>
<path fill-rule="evenodd" clip-rule="evenodd" d="M69.0038 11.2902H71.1827V9.29141C71.1827 6.72614 72.3565 5.01196 74.9585 5.01196H77.4508V8.30938H76.0497C75.5056 8.30938 75.1883 8.6928 75.1883 9.48107V11.2902H77.5663V14.238H75.1883V28.1287H71.1827V14.238H69.0038V11.2902Z" fill="#E3B15A"/>
<path fill-rule="evenodd" clip-rule="evenodd" d="M79.3036 10.9385H83.3125V14.2723H83.368C83.6248 13.2569 83.8257 12.656 85.2275 11.5737C85.9153 11.0016 86.8316 10.4317 88.09 10.6562V15.1905C86.3755 14.9701 83.797 14.7164 83.3125 18.4569V28.1288H79.3036V10.9385Z" fill="#E3B15A"/>
<path fill-rule="evenodd" clip-rule="evenodd" d="M98.3036 20.0431C97.1585 20.8026 95.6132 20.7419 94.5883 20.9601C93.3573 21.2163 92.5008 22.3562 92.8399 23.7539C93.0701 24.7649 93.7882 25.4956 95.4998 25.1793C97.876 24.7649 98.3036 22.9271 98.3036 21.0232V20.0431ZM98.7662 28.1287C98.4778 27.7169 98.3036 27.0192 98.3333 26.416C96.9304 27.8734 95.7027 28.8558 93.3573 28.8558C90.2072 28.8558 88.6586 26.8928 88.7778 23.5622C88.8632 21.1509 89.718 18.805 93.2709 18.1371C94.7584 18.0722 96.3616 17.6962 97.3037 17.3468C98.0248 17.059 98.3661 16.2368 98.3036 15.4099C98.3036 14.3339 97.5047 13.8566 95.6739 13.8566C93.3823 13.8566 93.099 15.4099 93.0392 16.6499H89.265C89.3193 11.1644 93.5524 10.6561 95.6739 10.6561C97.2192 10.6561 98.5633 10.9385 99.3376 11.2903C100.879 11.987 102.111 13.3813 102.111 16.1111V25.4956C102.083 26.2564 102.483 27.0192 103 27.5228V28.1287H98.7662Z" fill="#E3B15A"/>
<path fill-rule="evenodd" clip-rule="evenodd" d="M14.8855 18.6234C14.8208 17.0466 14.2832 16.0911 13.752 15.5155H13.7584C14.4631 15.5155 15.4437 16.1945 15.4437 17.2809C15.4437 17.8806 15.2586 18.3177 14.8855 18.6234ZM12.5021 21.6434V20.1298C13.0111 20.1173 13.4724 20.0657 13.8846 19.9765C13.6856 21.0065 13.1671 21.4949 12.5021 21.6434ZM10.5785 19.8795C10.8384 19.9793 11.1613 20.0601 11.5828 20.1017V21.6124C11.0751 21.414 10.6366 20.8503 10.5785 19.8795ZM10.5716 15.5155H11.5828V19.1686C11.2055 19.1135 10.8702 19.0129 10.5716 18.8791V15.5155ZM8.97824 13.071C8.97824 12.5234 9.20572 12.0493 9.65234 11.7071V14.3846C9.22435 14.1133 8.97824 13.615 8.97824 13.071ZM11.5828 8.84987V10.222C11.2439 10.2326 10.9173 10.2724 10.6086 10.34C10.7197 9.6573 11.0772 9.09067 11.5828 8.84987ZM13.5529 10.5555C13.2705 10.4465 12.9277 10.3358 12.5021 10.2725V8.78967C12.9945 8.96757 13.4109 9.5247 13.5529 10.5555ZM12.5021 14.5539V11.1924C12.8861 11.2512 13.2558 11.3544 13.6035 11.4943C13.5678 12.9475 12.898 14.295 12.5021 14.5539ZM10.5716 11.2765C10.8682 11.1979 11.2054 11.1504 11.5828 11.1388V14.5988H10.5716V11.2765ZM13.9722 19.0477C13.5672 19.1499 13.0776 19.2021 12.5021 19.2134V15.5246C12.9224 15.6311 13.973 16.7511 13.973 18.9444C13.973 18.9792 13.9726 19.0136 13.9722 19.0477ZM13.6052 14.5988H13.559C14.0194 13.9699 14.3858 12.9741 14.4926 11.9616C14.8159 12.1765 15.1057 12.4249 15.3518 12.6975C15.4743 12.8334 15.5357 12.9012 15.6276 12.9012C15.8114 12.9012 15.9033 12.7315 15.8114 12.5617C15.5663 12.1204 15.4743 11.7469 15.4743 11.2716C15.4743 10.966 15.5663 10.6945 15.6276 10.5247C15.6888 10.355 15.6276 10.1852 15.4437 10.1852C15.2905 10.1852 15.2599 10.321 15.1986 10.4228C15.0809 10.651 14.85 10.8473 14.5064 10.8627C14.3741 9.02803 13.5274 8.12956 12.6541 7.8817C12.9676 7.05475 13.7443 6.54719 14.7696 6.31484C14.9228 6.28086 15.0454 6.21299 15.0454 6.07717C15.0454 5.90746 14.9228 5.83951 14.7696 5.83951C14.4326 5.83951 13.9422 6.0432 13.5439 6.17902C12.9311 6.38271 12.4102 6.51853 11.9505 6.51853C10.97 6.51853 10.1119 6.0432 9.83618 6.0432C9.71367 6.0432 9.62168 6.14504 9.62168 6.28086C9.62168 6.38271 9.68301 6.48455 9.86685 6.5525C10.6814 6.84523 11.2112 7.31315 11.445 7.94382C10.9611 8.14071 10.5597 8.54111 10.2853 9.06436C9.95924 8.33586 9.54627 8.01238 8.94757 8.01238C8.36539 8.01238 7.90571 8.48762 7.90571 9.06479C7.90571 9.47217 8.15088 9.77779 8.42664 9.77779C8.54923 9.77779 8.61048 9.70992 8.61048 9.60808C8.61048 9.47217 8.54923 9.43828 8.54923 9.23459C8.54923 9.0309 8.7024 8.86111 8.94757 8.86111C9.31525 8.86111 9.65234 9.26857 9.65234 10.3889V10.6679C8.68841 11.1409 8.05896 11.9744 8.05896 13.1049C8.05896 14.2663 8.75021 15.1348 9.65234 15.4171V18.2814C8.96495 17.6684 8.57997 16.876 8.33472 16.2963C8.27347 16.1605 8.21214 15.9907 8.05896 15.9907C7.87512 15.9907 7.81379 16.1945 7.90571 16.4321C7.99763 16.6697 8.05896 17.0432 8.05896 17.3827C8.05896 17.7902 7.93638 18.1636 7.69121 18.4352C7.5687 18.5709 7.4767 18.6728 7.4767 18.7747C7.4767 18.9104 7.5687 18.9784 7.66062 18.9784C7.84446 18.9784 8.05896 18.7407 8.45731 18.7407C8.7024 18.7407 9.00883 18.8766 9.49917 19.2161C9.55059 19.2496 9.60123 19.2855 9.65234 19.323V19.7253V20.2006C9.65234 20.6759 9.4685 20.9815 9.10082 20.9815C8.85565 20.9815 8.7024 20.7778 8.7024 20.5061C8.7024 20.3025 8.82499 20.2346 8.82499 20.1327C8.82499 20.0308 8.76373 19.963 8.64115 19.963C8.45731 19.963 8.15088 20.2685 8.15088 20.7778C8.15088 21.2531 8.45731 21.8303 9.10082 21.8303C9.4652 21.8303 9.80748 21.7076 10.1277 21.3585C10.4247 21.89 10.9455 22.3643 11.5346 22.5393C11.3733 23.436 10.8147 24.1729 10.0201 24.1729C9.62168 24.1729 9.40725 23.9352 9.40725 23.6296C9.40725 23.3919 9.56042 23.2562 9.68301 23.1882C9.83618 23.1204 9.95877 23.0864 9.95877 22.8827C9.95877 22.7809 9.89743 22.645 9.59101 22.645C9.03949 22.645 8.57989 23.1882 8.57989 23.8334C8.57989 24.5463 9.03949 25.2253 9.98943 25.2253C10.799 25.2253 11.5039 24.7854 11.9494 24.2308C12.4735 24.7 13.272 25.0895 13.6665 25.0895C13.789 25.0895 13.9116 25.0216 13.9116 24.8858C13.9116 24.75 13.789 24.6481 13.6665 24.5802C12.9617 24.1729 12.5021 23.5957 12.5021 22.5772V22.5604C13.5962 22.3344 14.6195 21.3516 14.8458 19.6605C15.8415 19.1917 16.363 18.3838 16.363 17.2809C16.363 15.6852 15.0147 14.5988 13.6052 14.5988ZM18.8143 24.1729C17.7419 24.1729 17.0371 23.4939 17.0371 22.4753C17.0371 21.6265 17.5581 20.9475 18.1709 20.9475C18.416 20.9475 18.6305 21.0493 18.6305 21.321C18.6305 21.4908 18.5692 21.6265 18.7224 21.6265C18.8143 21.6265 18.9063 21.5247 18.9063 21.2531C18.9063 20.9136 18.6305 20.642 18.2322 20.642H18.1402C18.2015 20.5061 18.2015 20.3703 18.2015 20.3364C18.2015 20.0308 17.9871 19.8611 17.7726 19.8611C17.5581 19.8611 17.3435 19.9969 17.3435 20.1666C17.3435 20.2346 17.3742 20.2685 17.4355 20.2685C17.5274 20.2685 17.5581 20.1666 17.7113 20.1666C17.8338 20.1666 17.9257 20.2346 17.9257 20.4043C17.9257 20.642 17.7419 20.7438 17.5886 20.8457C17.0985 21.1513 16.7614 21.7623 16.7614 22.4753C16.7614 23.4259 17.2516 24.0371 17.9564 24.3086L17.4967 25.0895C16.884 25.0895 16.5775 25.5988 16.0259 26.6852C15.9647 26.4135 15.7808 26.2098 15.4743 26.2098C15.1373 26.2098 14.9228 26.4815 14.9228 26.8549C14.9228 26.9568 14.9841 27.0247 15.0454 27.0247C15.1373 27.0247 15.1986 26.9568 15.1986 26.8549C15.1986 26.6852 15.2905 26.5154 15.4743 26.5154C15.6888 26.5154 15.7808 26.6852 15.7808 26.8889C15.7808 27.1265 15.7502 27.2623 15.5969 27.5339C14.9535 28.6882 14.0648 29.2654 13.2988 29.2654C12.6247 29.2654 12.2263 28.8241 12.2263 28.3827C12.2263 27.9753 12.4408 27.6358 12.8085 27.6358C13.0537 27.6358 13.2069 27.8055 13.2069 28.0432C13.2069 28.2469 13.0537 28.2469 13.0537 28.3487C13.0537 28.4167 13.1149 28.4506 13.1762 28.4506C13.3601 28.4506 13.4826 28.2129 13.4826 27.9753C13.4826 27.6018 13.2069 27.3302 12.8085 27.3302C12.4408 27.3302 12.1344 27.6018 12.0424 27.8734C11.9505 27.6018 11.6441 27.3302 11.2764 27.3302C10.878 27.3302 10.6023 27.6018 10.6023 27.9753C10.6023 28.2129 10.7248 28.4506 10.9087 28.4506C10.97 28.4506 11.0312 28.4167 11.0312 28.3487C11.0312 28.2469 10.878 28.2469 10.878 28.0432C10.878 27.8055 11.0312 27.6358 11.2764 27.6358C11.6441 27.6358 11.8586 27.9753 11.8586 28.3827C11.8586 28.8241 11.4602 29.2654 10.7861 29.2654C10.0201 29.2654 9.13141 28.6882 8.48798 27.5339C8.33472 27.2623 8.30406 27.1265 8.30406 26.8889C8.30406 26.6852 8.39598 26.5154 8.61048 26.5154C8.7944 26.5154 8.88632 26.6852 8.88632 26.8549C8.88632 26.9568 8.94757 27.0247 9.03949 27.0247C9.10082 27.0247 9.16208 26.9568 9.16208 26.8549C9.16208 26.4815 8.94757 26.2098 8.61048 26.2098C8.30406 26.2098 8.12022 26.4135 8.05896 26.6852C7.50737 25.5988 7.20094 25.0895 6.58809 25.0895L6.1285 24.3086C6.83326 24.0371 7.32353 23.4259 7.32353 22.4753C7.32353 21.7623 6.98644 21.1513 6.49617 20.8457C6.343 20.7438 6.15908 20.642 6.15908 20.4043C6.15908 20.2346 6.251 20.1666 6.37367 20.1666C6.52684 20.1666 6.55743 20.2685 6.64943 20.2685C6.71068 20.2685 6.74134 20.2346 6.74134 20.1666C6.74134 19.9969 6.52684 19.8611 6.31234 19.8611C6.09783 19.8611 5.88332 20.0308 5.88332 20.3364C5.88332 20.3703 5.88332 20.5061 5.94458 20.642H5.85274C5.45439 20.642 5.17856 20.9136 5.17856 21.2531C5.17856 21.5247 5.27047 21.6265 5.36239 21.6265C5.51565 21.6265 5.45439 21.4908 5.45439 21.321C5.45439 21.0493 5.66882 20.9475 5.91399 20.9475C6.52684 20.9475 7.04777 21.6265 7.04777 22.4753C7.04777 23.4939 6.343 24.1729 5.27047 24.1729C4.01419 24.1729 3.06425 23.1543 3.06425 21.7284C3.06425 20.3364 3.79968 19.3858 4.62704 18.5371L5.33181 17.7902C6.22042 16.8735 6.58809 15.9228 6.58809 14.7346C6.58809 13.4444 5.88332 12.0185 4.41253 11.3055C4.71896 11.2037 4.9028 10.8642 4.9028 10.4568C4.9028 10.1852 4.81088 10.0155 4.81088 9.81168C4.81088 9.4043 5.02538 9.16664 5.33181 9.16664C5.60757 9.16664 5.79141 9.4043 5.79141 9.64197C5.79141 9.84566 5.66882 10.0155 5.45439 10.0155C5.36239 10.0155 5.30114 10.0155 5.30114 10.1173C5.30114 10.2191 5.39306 10.2531 5.51565 10.2531C5.88332 10.2531 6.06724 9.91361 6.06724 9.74381C6.1285 9.77779 6.18975 9.81168 6.28167 9.81168C6.49617 9.81168 6.64943 9.64197 6.64943 9.4043C6.64943 9.33644 6.61876 9.23459 6.52684 9.23459C6.46551 9.23459 6.43492 9.30246 6.43492 9.37041C6.43492 9.47217 6.37367 9.54012 6.28167 9.54012C6.15908 9.54012 6.06724 9.43828 6.00591 9.30246C5.88332 9.06479 5.63815 8.86111 5.33181 8.86111C4.93346 8.86111 4.62704 9.16664 4.56571 9.5741C4.38187 9.37041 4.16736 9.16664 3.86094 8.96295C4.10611 8.79324 4.32061 8.65742 4.56571 8.45373C4.93346 8.14811 5.27047 7.80861 5.63815 7.36725L7.32353 5.33029C8.7944 3.5309 9.74426 3.08946 10.6635 3.08946C11.4602 3.08946 11.8586 3.5309 11.8586 4.04012C11.8586 4.41343 11.7139 4.69048 11.4842 4.82734C11.3538 4.68089 11.2579 4.48087 11.2151 4.24381C11.1845 4.0741 11.1538 4.0741 11.1231 4.0741C11.0619 4.0741 11.0619 4.14197 11.0619 4.20992C11.0619 4.50029 11.1244 4.73439 11.2268 4.91577C11.1931 4.9203 11.1586 4.92283 11.1231 4.92283C10.8167 4.92283 10.6329 4.75312 10.6329 4.54943C10.6329 4.51545 10.6329 4.4475 10.6942 4.37963C10.7555 4.31176 10.7248 4.27779 10.6942 4.27779C10.5716 4.27779 10.449 4.4475 10.449 4.65127C10.449 4.88894 10.6329 5.22845 11.1538 5.22845C11.2309 5.22845 11.3334 5.21756 11.4435 5.18088C11.6163 5.3275 11.8293 5.39816 12.0424 5.39816C12.2555 5.39816 12.4686 5.3275 12.6413 5.18088C12.7514 5.21756 12.8539 5.22845 12.9311 5.22845C13.452 5.22845 13.6358 4.88894 13.6358 4.65127C13.6358 4.4475 13.5133 4.27779 13.3907 4.27779C13.3601 4.27779 13.3294 4.31176 13.3907 4.37963C13.452 4.4475 13.452 4.51545 13.452 4.54943C13.452 4.75312 13.2681 4.92283 12.9617 4.92283C12.9262 4.92283 12.8918 4.9203 12.8581 4.91577C12.9605 4.73439 13.0229 4.50029 13.0229 4.20992C13.0229 4.14197 13.0229 4.0741 12.9617 4.0741C12.9311 4.0741 12.9004 4.0741 12.8698 4.24381C12.827 4.48087 12.7311 4.68089 12.6007 4.82734C12.3709 4.69048 12.2263 4.41343 12.2263 4.04012C12.2263 3.5309 12.6247 3.08946 13.4214 3.08946C14.3406 3.08946 15.2905 3.5309 16.7614 5.33029L18.4467 7.36725C18.7838 7.80861 19.1514 8.14811 19.5192 8.45373C19.7643 8.65742 19.9788 8.79324 20.224 8.96295C19.9175 9.16664 19.703 9.37041 19.5192 9.5741C19.4579 9.16664 19.1514 8.86111 18.7531 8.86111C18.4467 8.86111 18.2015 9.06479 18.079 9.30246C18.0177 9.43828 17.9257 9.54012 17.8031 9.54012C17.7113 9.54012 17.65 9.47217 17.65 9.37041C17.65 9.30246 17.6193 9.23459 17.5581 9.23459C17.4661 9.23459 17.4355 9.33644 17.4355 9.4043C17.4355 9.64197 17.5886 9.81168 17.8031 9.81168C17.8951 9.81168 17.9564 9.77779 18.0177 9.74381C18.0177 9.91361 18.2015 10.2531 18.5692 10.2531C18.6918 10.2531 18.7838 10.2191 18.7838 10.1173C18.7838 10.0155 18.7224 10.0155 18.6305 10.0155C18.416 10.0155 18.2935 9.87963 18.2935 9.64197C18.2935 9.4043 18.4773 9.16664 18.7531 9.16664C19.0595 9.16664 19.274 9.4043 19.274 9.81168C19.274 10.0155 19.1821 10.1852 19.1821 10.4568C19.1821 10.8642 19.3659 11.2037 19.6724 11.3055C18.2015 12.0185 17.4967 13.4444 17.4967 14.7346C17.4967 15.9228 17.8645 16.8735 18.7531 17.7902L19.4579 18.5371C20.2852 19.3858 21.0206 20.3364 21.0206 21.7284C21.0206 23.1543 20.0707 24.1729 18.8143 24.1729ZM12.0424 30.4876C11.7973 29.9444 11.5216 29.6049 11.399 29.4352C11.7054 29.2994 11.9199 29.0617 12.0424 28.7901C12.165 29.0617 12.3795 29.2994 12.6859 29.4352C12.5633 29.6049 12.2876 29.9444 12.0424 30.4876ZM12.3523 5.01944C12.2561 5.06692 12.1515 5.09254 12.0424 5.09254C11.9333 5.09254 11.8288 5.06692 11.7326 5.01944C11.8523 4.91908 11.963 4.77228 12.0424 4.56058C12.1219 4.77228 12.2326 4.91908 12.3523 5.01944ZM21.5109 20.2685C21.3271 20.2685 21.1738 20.3703 21.1126 20.5061C20.8674 19.8951 20.6222 19.3179 19.5498 18.2314C19.6111 18.2654 19.8256 18.2994 19.9788 18.2994C20.3159 18.2994 20.6836 18.1975 20.8981 17.9599C20.9593 18.1975 21.1432 18.3333 21.3577 18.3333C21.6947 18.3333 21.8173 18.0957 21.8173 17.8241C21.8173 17.7222 21.7867 17.6204 21.6947 17.6204C21.5109 17.6204 21.6641 18.0277 21.3577 18.0277C21.2351 18.0277 21.1432 17.9259 21.1432 17.7562C21.1432 17.5864 21.2351 17.3827 21.2351 17.145C21.2351 16.6018 20.9286 16.2284 20.561 16.1265C20.3465 16.0586 20.224 15.8889 20.224 15.6852C20.224 15.4136 20.4078 15.3796 20.5304 15.3796C20.6529 15.3796 20.7449 15.4136 20.7449 15.3117C20.7449 15.2098 20.6529 15.142 20.4691 15.142C20.2545 15.142 19.9481 15.3117 19.9481 15.6852C19.9481 15.821 19.9788 15.9568 20.1014 16.0926C19.8256 16.1605 19.5804 16.3982 19.5804 16.7716C19.5804 17.0092 19.6417 17.2469 19.7949 17.2469C19.9788 17.2469 19.8256 17.0772 19.8256 16.8055C19.8256 16.5 20.0707 16.3642 20.3159 16.3642C20.6529 16.3642 20.9593 16.7037 20.9593 17.145C20.9593 17.6543 20.5916 17.9938 20.0095 17.9938C19.6724 17.9938 19.1821 17.9259 18.7838 17.4167C18.1402 16.6358 17.7726 15.9568 17.7726 14.7346C17.7726 13.1729 18.7838 11.8148 20.2545 11.3735C20.561 11.2716 20.8061 10.966 20.8061 10.5586C20.8061 10.2191 20.6222 9.94759 20.3159 9.94759C20.1933 9.94759 20.1014 9.98148 20.1014 10.0833C20.1014 10.1852 20.1933 10.1852 20.2545 10.1852C20.3771 10.1852 20.5304 10.321 20.5304 10.5586C20.5304 10.8982 20.2852 11.1018 20.0095 11.1018C19.6724 11.1018 19.4579 10.8302 19.4579 10.4568C19.4579 9.74381 20.224 9.26857 20.8061 8.96295C20.2852 8.6914 20.1014 8.58955 19.703 8.25004C19.6111 8.14811 19.5804 8.04627 19.5804 7.91054C19.5804 7.74074 19.6724 7.60492 19.7949 7.60492C19.8869 7.60492 19.9481 7.67287 19.9481 7.77472C19.9481 7.87656 19.8869 7.87656 19.8869 7.94443C19.8869 8.01238 19.9175 8.04627 19.9788 8.04627C20.04 8.04627 20.1933 7.9784 20.1933 7.70676C20.1933 7.50307 20.0707 7.29939 19.7949 7.29939C19.5192 7.29939 19.3047 7.53705 19.3047 7.87656C19.0902 7.67287 18.845 7.43521 18.6305 7.16357L17.65 5.97533C17.3742 5.63582 17.5274 4.99078 17.9257 4.99078C18.1402 4.99078 18.2322 5.16049 18.2322 5.29631C18.2322 5.60184 17.9564 5.46602 17.9564 5.63582C17.9564 5.70369 17.9871 5.77155 18.079 5.77155C18.2935 5.77155 18.5079 5.60184 18.5079 5.26234C18.5079 4.9568 18.2628 4.68516 17.9257 4.68516C17.5274 4.68516 17.2516 5.02467 17.2516 5.5L16.9452 5.12651C15.5969 3.49693 14.4938 2.78393 13.4214 2.78393C13.0229 2.78393 12.6553 2.91975 12.4408 3.08946C12.2569 2.85189 12.165 2.68209 12.0424 2.4784C11.9199 2.68209 11.828 2.85189 11.6441 3.08946C11.4296 2.91975 11.0619 2.78393 10.6635 2.78393C9.59101 2.78393 8.48798 3.49693 7.13969 5.12651L6.83327 5.5C6.83327 5.02467 6.55743 4.68516 6.15908 4.68516C5.82207 4.68516 5.5769 4.9568 5.5769 5.26234C5.5769 5.60184 5.79141 5.77155 6.00591 5.77155C6.09783 5.77155 6.1285 5.70369 6.1285 5.63582C6.1285 5.46602 5.85274 5.60184 5.85274 5.29631C5.85274 5.16049 5.94458 4.99078 6.15908 4.99078C6.55743 4.99078 6.71068 5.63582 6.43492 5.97533L5.45439 7.16357C5.23989 7.43521 4.99472 7.67287 4.78021 7.87656C4.78021 7.53705 4.56571 7.29939 4.28995 7.29939C4.01419 7.29939 3.8916 7.50307 3.8916 7.70676C3.8916 7.9784 4.04478 8.04627 4.10611 8.04627C4.16736 8.04627 4.19803 8.01238 4.19803 7.94443C4.19803 7.87656 4.1367 7.87656 4.1367 7.77472C4.1367 7.67287 4.19803 7.60492 4.28995 7.60492C4.41253 7.60492 4.50445 7.74074 4.50445 7.91054C4.50445 8.04627 4.47379 8.14811 4.38187 8.25004C4.01419 8.65742 3.79968 8.6914 3.27875 8.96295C3.86094 9.26857 4.62704 9.74381 4.62704 10.4568C4.62704 10.8302 4.41253 11.1018 4.07544 11.1018C3.79968 11.1018 3.55451 10.8982 3.55451 10.5586C3.55451 10.321 3.70776 10.1852 3.83027 10.1852C3.8916 10.1852 3.98352 10.1852 3.98352 10.0833C3.98352 9.98148 3.8916 9.94759 3.76902 9.94759C3.46259 9.94759 3.27875 10.2191 3.27875 10.5586C3.27875 10.966 3.52385 11.2716 3.83027 11.3735C5.30114 11.8487 6.31234 13.1729 6.31234 14.7346C6.31234 15.9568 5.91399 16.6018 5.30114 17.4167C4.9028 17.9259 4.41253 17.9938 4.07544 17.9938C3.49326 17.9938 3.1255 17.6543 3.1255 17.145C3.1255 16.7037 3.43193 16.3642 3.76902 16.3642C4.01419 16.3642 4.25928 16.5 4.25928 16.8055C4.25928 17.0772 4.10611 17.2469 4.28995 17.2469C4.44312 17.2469 4.50445 17.0092 4.50445 16.7716C4.50445 16.3982 4.25928 16.1605 3.98352 16.0926C4.10611 15.9568 4.1367 15.821 4.1367 15.6852C4.1367 15.3117 3.83027 15.142 3.61584 15.142C3.43193 15.142 3.34001 15.2098 3.34001 15.3117C3.34001 15.4136 3.43193 15.3796 3.55451 15.3796C3.6771 15.3796 3.86094 15.4136 3.86094 15.6852C3.86094 15.8889 3.73835 16.0586 3.52385 16.1265C3.15617 16.2284 2.84974 16.6018 2.84974 17.145C2.84974 17.3827 2.94174 17.5864 2.94174 17.7562C2.94174 17.9259 2.84974 18.0277 2.72716 18.0277C2.42081 18.0277 2.57398 17.6204 2.39014 17.6204C2.29815 17.6204 2.26756 17.7222 2.26756 17.8241C2.26756 18.0957 2.39014 18.3333 2.72716 18.3333C2.94174 18.3333 3.1255 18.1975 3.18683 17.9599C3.40134 18.1975 3.76902 18.2994 4.10611 18.2994C4.25928 18.2994 4.47379 18.2654 4.53512 18.2314C3.46259 19.3179 3.21742 19.8951 2.97233 20.5061C2.911 20.3703 2.75782 20.2685 2.57398 20.2685C2.26756 20.2685 2.11439 20.4723 2.11439 20.7778C2.11439 20.8457 2.11439 21.0493 2.26756 21.0493C2.39014 21.0493 2.32889 20.9136 2.32889 20.8118C2.32889 20.6759 2.42081 20.5741 2.57398 20.5741C2.81908 20.5741 2.88041 20.8118 2.81908 21.1852C2.78849 21.355 2.78849 21.5586 2.78849 21.7284C2.78849 23.3241 3.86094 24.4784 5.27047 24.4784C5.48498 24.4784 5.66882 24.4444 5.88332 24.4104L6.31234 25.1234C6.00591 25.2253 5.79141 25.5308 5.79141 25.8703C5.79141 26.3118 6.09783 26.6512 6.49617 26.6512C6.74135 26.6512 6.92518 26.5154 6.92518 26.3796C6.92518 26.2778 6.86385 26.2438 6.8026 26.2438C6.71068 26.2438 6.71068 26.3457 6.49617 26.3457C6.251 26.3457 6.06724 26.142 6.06724 25.8703C6.06724 25.5988 6.28167 25.3951 6.58809 25.3951C7.17028 25.3951 7.44611 26.142 7.84446 26.8889L8.2428 27.6358C8.88632 28.858 9.9281 29.5709 10.7861 29.5709C10.9087 29.5709 11.0312 29.5709 11.1538 29.5371C11.5216 29.9444 11.8892 30.6914 12.0424 31.0308C12.1957 30.6914 12.5633 29.9444 12.9311 29.5371C13.0537 29.5709 13.1762 29.5709 13.2988 29.5709C14.1567 29.5709 15.1986 28.858 15.8421 27.6358L16.2404 26.8889C16.6388 26.142 16.9145 25.3951 17.4967 25.3951C17.8031 25.3951 18.0177 25.5988 18.0177 25.8703C18.0177 26.142 17.8338 26.3457 17.5886 26.3457C17.3742 26.3457 17.3742 26.2438 17.2822 26.2438C17.221 26.2438 17.1597 26.2778 17.1597 26.3796C17.1597 26.5154 17.3435 26.6512 17.5886 26.6512C17.9871 26.6512 18.2935 26.3118 18.2935 25.8703C18.2935 25.5308 18.079 25.2253 17.7726 25.1234L18.2015 24.4104C18.416 24.4444 18.5999 24.4784 18.8143 24.4784C20.224 24.4784 21.2964 23.3241 21.2964 21.7284C21.2964 21.5586 21.2964 21.355 21.2657 21.1852C21.2045 20.8118 21.2657 20.5741 21.5109 20.5741C21.6641 20.5741 21.756 20.6759 21.756 20.8118C21.756 20.9136 21.6947 21.0493 21.8173 21.0493C21.9705 21.0493 21.9705 20.8457 21.9705 20.7778C21.9705 20.4723 21.8173 20.2685 21.5109 20.2685ZM20.7142 26.108C19.3659 27.6358 17.3742 28.7222 15.4743 29.7407C14.218 30.4198 12.9923 31.0988 12.0424 31.9135C11.0925 31.0988 9.86685 30.4198 8.61048 29.7407C6.71068 28.7222 4.71896 27.6358 3.37067 26.108C1.65471 24.1729 0.827355 22.2037 0.827355 19.963C0.827355 18.0617 1.50154 16.466 3.03358 14.3272C3.15617 14.1574 3.27875 13.9877 3.27875 13.8518C3.27875 13.7161 3.15617 13.4444 3.09491 13.3087L2.02247 10.7284C1.7773 10.1512 1.53212 9.60808 1.53212 9.0309C1.53212 8.55558 1.80796 8.21607 2.17564 7.87656L3.70776 6.34873C3.76902 6.28086 3.76902 6.17902 3.73835 6.11106L3.24809 4.99078C3.18683 4.85496 3.18683 4.75312 3.27875 4.68516C4.78021 3.56479 6.03658 3.22529 7.84446 2.68209C9.56042 2.17287 11.0925 1.73143 12.0424 1.0525C12.9923 1.73143 14.5245 2.17287 16.2404 2.68209C18.0483 3.22529 19.274 3.63275 20.8061 4.68516C20.8981 4.75312 20.8981 4.85496 20.8368 4.99078L20.3465 6.11106C20.3159 6.17902 20.3159 6.28086 20.3771 6.34873L21.9093 7.87656C22.2769 8.21607 22.5528 8.55558 22.5528 9.0309C22.5528 9.60808 22.3076 10.1512 22.0624 10.7284L20.99 13.3087C20.9286 13.4444 20.8061 13.7161 20.8061 13.8518C20.8061 13.9877 20.9286 14.1574 21.0513 14.3272C22.7059 16.3642 23.2575 18.0617 23.2575 19.963C23.2575 22.2037 22.4302 24.1729 20.7142 26.108ZM22.1543 14.429C21.8786 14.0556 21.7254 13.8858 21.7254 13.75C21.7254 13.6141 21.8173 13.4105 21.9093 13.1729L22.8285 10.9321C23.1043 10.2531 23.3495 9.67594 23.3495 8.96295C23.3495 8.45373 23.1656 7.94443 22.7059 7.50307L21.3883 6.24688C21.2657 6.14504 21.2657 5.97533 21.3271 5.83951L21.8173 4.6173C21.8479 4.54943 21.8479 4.4475 21.756 4.37963C20.2545 3.25926 18.5386 2.58025 16.9145 2.07094C15.2905 1.5957 13.1149 0.916681 12.0424 0C10.97 0.916681 8.7944 1.56172 7.17028 2.07094C5.54631 2.58025 3.83027 3.25926 2.32889 4.37963C2.23689 4.4475 2.23689 4.54943 2.26756 4.6173L2.75782 5.83951C2.81908 5.97533 2.81908 6.14504 2.69657 6.24688L1.37895 7.50307C0.919274 7.94443 0.735435 8.45373 0.735435 8.96295C0.735435 9.67594 0.980606 10.2531 1.25637 10.9321L2.17564 13.1729C2.26756 13.4105 2.35948 13.6141 2.35948 13.75C2.35948 13.8858 2.20623 14.0556 1.93047 14.429C0.551596 16.3302 0 17.8919 0 19.963C0 22.8487 1.28703 25.0556 2.75782 26.7191C4.25928 28.4167 6.343 29.5371 8.2428 30.5555C9.49917 31.2345 10.8167 31.9135 12.0424 33C13.2681 31.9135 14.5857 31.2345 15.8421 30.5555C17.7419 29.5371 19.8562 28.4167 21.3271 26.7191C22.7979 25.0556 24.0848 22.8487 24.0848 19.963C24.0848 17.8919 23.5333 16.3302 22.1543 14.429Z" fill="#E3B15A"/>
</svg>
