<?xml version="1.0" encoding="UTF-8"?>
<svg width="150px" height="44px" viewBox="0 0 150 44" version="1.1" xmlns="http://www.w3.org/2000/svg" xmlns:xlink="http://www.w3.org/1999/xlink">
    <!-- Generator: sketchtool 55.1 (78136) - https://sketchapp.com -->
    <title>A645EFF4-D841-4BF1-8C33-2C541FDCC5F2@2x</title>
    <desc>Created with sketchtool.</desc>
    <g id="Desk" stroke="none" stroke-width="1" fill="none" fill-rule="evenodd">
        <g id="Home-Safra" transform="translate(-130.000000, -49.000000)" fill="#1E2044">
            <g id="01.HEADER">
                <g id="HEADER" transform="translate(0.000000, 45.000000)">
                    <g id="LOGO" transform="translate(130.000000, 4.000000)">
                        <path d="M70.2731336,16.1338158 C70.3540878,13.6428368 68.3156908,11.3704684 64.0199656,11.2868684 C60.9826374,11.2431 58.7270267,12.3008368 58.525271,14.8281737 C58.3587824,16.9365842 59.0672176,17.3555105 60.4367977,17.9005316 C61.1492405,18.6639316 66.9012252,19.5912895 68.0594313,19.7967 C69.7294695,20.0953211 73.3203092,20.8515421 75.2312634,22.8308474 C78.7332481,26.5406263 77.1101565,33.8323526 73.3203092,36.3193947 C70.7282863,38.0041316 67.1912634,38.4263 63.8153473,38.4672895 C62.2737824,38.5122158 58.6037061,37.9614053 56.3537061,36.3193947 C53.6469504,34.3354579 52.3113779,31.3011947 52.1096221,28.3971947 L58.1863397,28.3971947 C58.1863397,29.1953316 58.4398511,30.4603316 59.4775992,31.5588263 C60.849813,32.9942684 63.1095458,33.4546474 65.1904237,33.3695421 C67.2755382,33.3277421 69.2302328,32.6986579 70.0225992,31.9323632 C71.3554237,30.6735 71.6483244,28.2669316 70.1470649,26.7544895 C68.1434771,24.6461947 62.1477137,24.6461947 58.2328282,23.2970158 C54.9352328,22.1569526 52.2328282,19.7515421 52.7313779,14.7869526 C53.231187,9.89484737 56.7272176,6.27167895 64.150042,6.27167895 C65.7701565,6.27167895 71.4383244,6.39904737 74.3993931,10.1939316 C75.9833244,12.2554474 76.3990878,15.1213526 76.1515305,16.1338158 L70.2731336,16.1338158 Z" id="Fill-1"></path>
                        <path d="M92.656729,26.7545126 C90.9892099,27.7639653 88.7451641,27.68326 87.2396679,27.9733126 C85.4514618,28.3137337 84.1929504,29.8288389 84.6995153,31.6864495 C85.0340954,33.0301863 86.0688664,34.0013126 88.5724924,33.5808811 C92.0294771,33.0301863 92.656729,30.5876074 92.656729,28.0571442 L92.656729,26.7545126 Z M93.3238282,37.5009337 C92.9080649,36.9535968 92.656729,36.0262389 92.6986374,35.2246284 C90.6578359,37.1615547 88.8651641,38.4673126 85.4514618,38.4673126 C80.8628359,38.4673126 78.6126069,35.8582284 78.7797824,31.4315968 C78.9055076,28.2268916 80.1544008,25.1090284 85.3242481,24.2212705 C87.4873397,24.1350074 89.8188664,23.6353758 91.1993244,23.1709442 C92.2373015,22.7884916 92.7408893,21.6956705 92.656729,20.5967126 C92.656729,19.1665968 91.4861565,18.5321863 88.8201641,18.5321863 C85.486271,18.5321863 85.0682176,20.5967126 84.9893244,22.2447442 L79.487645,22.2447442 C79.5750115,14.95406 85.7397824,14.2785442 88.8201641,14.2785442 C91.0735992,14.2785442 93.0309275,14.6538179 94.1594771,15.1213758 C96.4097061,16.0473442 98.1976832,17.9005547 98.1976832,21.5285863 L98.1976832,34.0013126 C98.1584084,35.0125021 98.7439809,36.0262389 99.4884847,36.6956179 L99.4884847,37.5009337 L93.3238282,37.5009337 Z" id="Fill-3"></path>
                        <path d="M100.484485,15.1213989 L103.657385,15.1213989 L103.657385,12.4648411 C103.657385,9.05542 105.366698,6.77714632 109.155859,6.77714632 L112.785172,6.77714632 L112.785172,11.1596621 L110.744828,11.1596621 C109.952576,11.1596621 109.490439,11.6692516 109.490439,12.7169147 L109.490439,15.1213989 L112.953378,15.1213989 L112.953378,19.0392516 L109.490439,19.0392516 L109.490439,37.5009568 L103.657385,37.5009568 L103.657385,19.0392516 L100.484485,19.0392516 L100.484485,15.1213989 Z" id="Fill-5"></path>
                        <path d="M115.483248,14.6538295 L121.321111,14.6538295 L121.321111,19.0846295 L121.40195,19.0846295 C121.775805,17.7351032 122.068477,16.9365032 124.109737,15.4980505 C125.111416,14.7376611 126.445615,13.9801663 128.278134,14.2785558 L128.278134,20.3050505 C125.781492,20.0121032 122.026569,19.6749242 121.321111,24.6462295 L121.321111,37.5009453 L115.483248,37.5009453 L115.483248,14.6538295 Z" id="Fill-7"></path>
                        <path d="M143.151469,26.7545126 C141.48395,27.7639653 139.233721,27.68326 137.741164,27.9733126 C135.948607,28.3137337 134.701317,29.8288389 135.195172,31.6864495 C135.530439,33.0301863 136.576088,34.0013126 139.068607,33.5808811 C142.528798,33.0301863 143.151469,30.5876074 143.151469,28.0571442 L143.151469,26.7545126 Z M143.825095,37.5009337 C143.40521,36.9535968 143.151469,36.0262389 143.194752,35.2246284 C141.151775,37.1615547 139.364027,38.4673126 135.948607,38.4673126 C131.361355,38.4673126 129.106202,35.8582284 129.27979,31.4315968 C129.404256,28.2268916 130.648912,25.1090284 135.822767,24.2212705 C137.988836,24.1350074 140.323454,23.6353758 141.695439,23.1709442 C142.745553,22.7884916 143.2425,21.6956705 143.151469,20.5967126 C143.151469,19.1665968 141.988111,18.5321863 139.322004,18.5321863 C135.985019,18.5321863 135.572462,20.5967126 135.485439,22.2447442 L129.989256,22.2447442 C130.068378,14.95406 136.232691,14.2785442 139.322004,14.2785442 C141.572347,14.2785442 143.529676,14.6538179 144.657195,15.1213758 C146.901469,16.0473442 148.696088,17.9005547 148.696088,21.5285863 L148.696088,34.0013126 C148.654523,35.0125021 149.238034,36.0262389 149.990439,36.6956179 L149.990439,37.5009337 L143.825095,37.5009337 Z" id="Fill-9"></path>
                        <path d="M21.6764427,24.8676653 C21.5822061,22.7719916 20.799458,21.5020126 20.0258702,20.7369916 L20.0352595,20.7369916 C21.0614427,20.7369916 22.4894198,21.6394547 22.4894198,23.0833495 C22.4894198,23.8804442 22.2198779,24.46136 21.6764427,24.8676653 L21.6764427,24.8676653 Z M18.2057176,28.8815074 L18.2057176,26.8697811 C18.9470153,26.8532232 19.6186947,26.78456 20.2189237,26.6661074 C19.929229,28.0349705 19.1740763,28.6840863 18.2057176,28.8815074 L18.2057176,28.8815074 Z M15.4046107,26.5371179 C15.7830458,26.6698126 16.2531985,26.7771495 16.8670534,26.8324968 L16.8670534,28.8402863 C16.1277023,28.5766337 15.489229,27.82736 15.4046107,26.5371179 L15.4046107,26.5371179 Z M15.3945344,20.7369916 L16.8670534,20.7369916 L16.8670534,25.5922758 C16.3176641,25.5190968 15.8293053,25.38536 15.3945344,25.2075074 L15.3945344,20.7369916 Z M13.074229,17.4881705 C13.074229,16.7603179 13.4054885,16.1301916 14.0558702,15.6753705 L14.0558702,19.2340442 C13.432626,18.8734758 13.074229,18.21116 13.074229,17.4881705 L13.074229,17.4881705 Z M16.8670534,11.8779389 L16.8670534,13.7016232 C16.373542,13.7156337 15.8978931,13.7685495 15.4483511,13.8584021 C15.610145,12.9510758 16.1307939,12.1979811 16.8670534,11.8779389 L16.8670534,11.8779389 Z M19.7359466,14.1448653 C19.3247634,14.0000126 18.8255267,13.8528442 18.2057176,13.7686653 L18.2057176,11.7979284 C18.922855,12.0343705 19.5291527,12.7748442 19.7359466,14.1448653 L19.7359466,14.1448653 Z M18.2057176,19.4590232 L18.2057176,14.9912863 C18.7649542,15.0694442 19.3033511,15.2066547 19.809687,15.3926126 C19.7575878,17.3239811 18.7822443,19.1148968 18.2057176,19.4590232 L18.2057176,19.4590232 Z M15.3945344,15.1031389 C15.8264427,14.9986968 16.3174351,14.9354758 16.8670534,14.9200758 L16.8670534,19.5186547 L15.3945344,19.5186547 L15.3945344,15.1031389 Z M20.3464809,25.43156 C19.7567863,25.5673811 19.043771,25.6368547 18.2057176,25.6517916 L18.2057176,20.7491495 C18.8177405,20.8906442 20.347626,22.3792337 20.347626,25.2943495 C20.347626,25.3405495 20.3471679,25.3862863 20.3464809,25.43156 L20.3464809,25.43156 Z M19.8120916,19.5186547 L19.7448779,19.5186547 C20.4152977,18.6828863 20.948771,17.3592968 21.1043817,16.0137074 C21.5751069,16.2992442 21.9971679,16.62936 22.3555649,16.9917811 C22.5339618,17.1722968 22.6232748,17.2624968 22.7571298,17.2624968 C23.0248397,17.2624968 23.1586947,17.0369389 23.0248397,16.8112653 C22.6679313,16.2246758 22.5339618,15.7282863 22.5339618,15.0966547 C22.5339618,14.6904653 22.6679313,14.3295495 22.7571298,14.1038758 C22.8463282,13.8783179 22.7571298,13.6526442 22.4894198,13.6526442 C22.2662519,13.6526442 22.2217099,13.83316 22.1323969,13.9685179 C21.9610992,14.2717705 21.6248015,14.5326442 21.1244198,14.5531389 C20.9317099,12.1147284 19.6987328,10.9205916 18.4270534,10.5911705 C18.8835802,9.49209684 20.0146489,8.81750737 21.5076641,8.50869684 C21.7308321,8.46353895 21.9093435,8.37333895 21.9093435,8.19282316 C21.9093435,7.96726526 21.7308321,7.87694947 21.5076641,7.87694947 C21.0169008,7.87694947 20.302855,8.14766526 19.7227786,8.32818105 C18.8304504,8.59889684 18.0718626,8.77941263 17.4024733,8.77941263 C15.9746107,8.77941263 14.725145,8.14766526 14.3235802,8.14766526 C14.1451832,8.14766526 14.0112137,8.28302316 14.0112137,8.46353895 C14.0112137,8.59889684 14.1005267,8.73425474 14.3682366,8.82457053 C15.5543817,9.21362316 16.3259084,9.83552842 16.6664427,10.6737284 C15.9616718,10.9354126 15.3772443,11.4675811 14.977626,12.1630126 C14.5027786,11.1947811 13.9014046,10.7648547 13.0295725,10.7648547 C12.1817863,10.7648547 11.5123969,11.3964863 11.5123969,12.1635916 C11.5123969,12.7050232 11.8694198,13.1112126 12.2709847,13.1112126 C12.4494962,13.1112126 12.5386947,13.0210126 12.5386947,12.8856547 C12.5386947,12.7050232 12.4494962,12.6599811 12.4494962,12.3892653 C12.4494962,12.1185495 12.6725496,11.8928758 13.0295725,11.8928758 C13.5649924,11.8928758 14.0558702,12.4344232 14.0558702,13.92336 L14.0558702,14.2942337 C12.6521679,14.9228547 11.7355649,16.0306126 11.7355649,17.5332126 C11.7355649,19.0768021 12.7421679,20.2311074 14.0558702,20.6062653 L14.0558702,24.4130758 C13.0548779,23.5983811 12.4942672,22.5452758 12.1371298,21.7748126 C12.0479313,21.5942968 11.9586183,21.3686232 11.7355649,21.3686232 C11.467855,21.3686232 11.378542,21.6394547 11.5123969,21.9553284 C11.6462519,22.2710863 11.7355649,22.7674758 11.7355649,23.2187074 C11.7355649,23.7602547 11.5570534,24.2565284 11.2000305,24.61756 C11.0216336,24.79796 10.8876641,24.9333179 10.8876641,25.0687916 C10.8876641,25.2491916 11.0216336,25.3395074 11.1554885,25.3395074 C11.4231985,25.3395074 11.7355649,25.0236337 12.3156412,25.0236337 C12.6725496,25.0236337 13.118771,25.2041495 13.8328168,25.6553811 C13.9077023,25.69996 13.9814427,25.7476653 14.0558702,25.7974547 L14.0558702,26.3321705 L14.0558702,26.9639179 C14.0558702,27.5956653 13.7881603,28.0017389 13.2527405,28.0017389 C12.8957176,28.0017389 12.6725496,27.7310232 12.6725496,27.3699916 C12.6725496,27.0992758 12.8510611,27.0090758 12.8510611,26.8737179 C12.8510611,26.7382442 12.7618626,26.6480442 12.5833511,26.6480442 C12.3156412,26.6480442 11.8694198,27.0541179 11.8694198,27.7310232 C11.8694198,28.3627705 12.3156412,29.1298758 13.2527405,29.1298758 C13.7833511,29.1298758 14.2817863,28.9668442 14.7481603,28.5028758 C15.1805267,29.2091916 15.939,29.8395495 16.7968626,30.0721705 C16.5619008,31.2639916 15.7485802,32.2433389 14.5914046,32.2433389 C14.0112137,32.2433389 13.6989618,31.9274653 13.6989618,31.5212758 C13.6989618,31.2054021 13.9220153,31.0250021 14.1005267,30.9346863 C14.3235802,30.8444863 14.5020916,30.7993284 14.5020916,30.5286126 C14.5020916,30.3932547 14.4127786,30.2127389 13.9665573,30.2127389 C13.1634275,30.2127389 12.4941527,30.9346863 12.4941527,31.7921074 C12.4941527,32.7396126 13.1634275,33.6420758 14.5467481,33.6420758 C15.7256794,33.6420758 16.7522061,33.0574547 17.4008702,32.3203389 C18.1641527,32.9439811 19.3268244,33.46156 19.9014046,33.46156 C20.0798015,33.46156 20.258313,33.37136 20.258313,33.1908442 C20.258313,33.0103284 20.0798015,32.8749705 19.9014046,32.7847705 C18.8749924,32.2433389 18.2057176,31.4762337 18.2057176,30.1225389 L18.2057176,30.1001916 C19.7990382,29.7998337 21.2891908,28.4936126 21.6186183,26.2460232 C23.0686947,25.62296 23.828084,24.5492442 23.828084,23.0833495 C23.828084,20.9625495 21.864687,19.5186547 19.8120916,19.5186547 L19.8120916,19.5186547 Z M27.3977405,32.2433389 C25.8360229,32.2433389 24.8097252,31.3408758 24.8097252,29.9871811 C24.8097252,28.8590442 25.568313,27.9565811 26.4607557,27.9565811 C26.8176641,27.9565811 27.1300305,28.0919389 27.1300305,28.4529705 C27.1300305,28.6786442 27.0408321,28.8590442 27.2638855,28.8590442 C27.3977405,28.8590442 27.5317099,28.7236863 27.5317099,28.3627705 C27.5317099,27.9115389 27.1300305,27.5505074 26.5499542,27.5505074 L26.4160992,27.5505074 C26.5052977,27.3699916 26.5052977,27.1894758 26.5052977,27.1444337 C26.5052977,26.7382442 26.1930458,26.5126863 25.8806794,26.5126863 C25.568313,26.5126863 25.2559466,26.6932021 25.2559466,26.91876 C25.2559466,27.0090758 25.3006031,27.0541179 25.3898015,27.0541179 C25.5236565,27.0541179 25.568313,26.91876 25.7914809,26.91876 C25.9698779,26.91876 26.1037328,27.0090758 26.1037328,27.2346337 C26.1037328,27.5505074 25.8360229,27.6858653 25.612855,27.8212232 C24.8990382,28.2274126 24.4081603,29.03956 24.4081603,29.9871811 C24.4081603,31.25056 25.1220916,32.0628232 26.1483893,32.4237389 L25.479,33.46156 C24.5866718,33.46156 24.1404504,34.1384653 23.3372061,35.58236 C23.2480076,35.2213284 22.9801832,34.9506126 22.5339618,34.9506126 C22.0431985,34.9506126 21.7308321,35.3116442 21.7308321,35.8079179 C21.7308321,35.9433916 21.8200305,36.0335916 21.9093435,36.0335916 C22.0431985,36.0335916 22.1323969,35.9433916 22.1323969,35.8079179 C22.1323969,35.58236 22.2662519,35.3566863 22.5339618,35.3566863 C22.8463282,35.3566863 22.9801832,35.58236 22.9801832,35.8530758 C22.9801832,36.1689495 22.9356412,36.3494653 22.7124733,36.7103811 C21.7754885,38.2445916 20.4813664,39.0116968 19.3658702,39.0116968 C18.384229,39.0116968 17.8041527,38.4251074 17.8041527,37.8385179 C17.8041527,37.2970863 18.1165191,36.8458547 18.6519389,36.8458547 C19.0089618,36.8458547 19.2320153,37.0714126 19.2320153,37.3872863 C19.2320153,37.6580021 19.0089618,37.6580021 19.0089618,37.79336 C19.0089618,37.8836758 19.0981603,37.9287179 19.1873588,37.9287179 C19.4551832,37.9287179 19.6335802,37.6128442 19.6335802,37.2970863 C19.6335802,36.8006968 19.2320153,36.4396653 18.6519389,36.4396653 C18.1165191,36.4396653 17.6702977,36.8006968 17.5363282,37.1616126 C17.4024733,36.8006968 16.9562519,36.4396653 16.4208321,36.4396653 C15.8407557,36.4396653 15.4391908,36.8006968 15.4391908,37.2970863 C15.4391908,37.6128442 15.6175878,37.9287179 15.8854122,37.9287179 C15.9746107,37.9287179 16.0638092,37.8836758 16.0638092,37.79336 C16.0638092,37.6580021 15.8407557,37.6580021 15.8407557,37.3872863 C15.8407557,37.0714126 16.0638092,36.8458547 16.4208321,36.8458547 C16.9562519,36.8458547 17.2686183,37.2970863 17.2686183,37.8385179 C17.2686183,38.4251074 16.688542,39.0116968 15.7069008,39.0116968 C14.5914046,39.0116968 13.2972824,38.2445916 12.3602977,36.7103811 C12.1371298,36.3494653 12.0924733,36.1689495 12.0924733,35.8530758 C12.0924733,35.58236 12.2263282,35.3566863 12.5386947,35.3566863 C12.8065191,35.3566863 12.940374,35.58236 12.940374,35.8079179 C12.940374,35.9433916 13.0295725,36.0335916 13.1634275,36.0335916 C13.2527405,36.0335916 13.3419389,35.9433916 13.3419389,35.8079179 C13.3419389,35.3116442 13.0295725,34.9506126 12.5386947,34.9506126 C12.0924733,34.9506126 11.8247634,35.2213284 11.7355649,35.58236 C10.9323206,34.1384653 10.4860992,33.46156 9.59365649,33.46156 L8.92438168,32.4237389 C9.95067939,32.0628232 10.6646107,31.25056 10.6646107,29.9871811 C10.6646107,29.03956 10.1737328,28.2274126 9.45980153,27.8212232 C9.23674809,27.6858653 8.96892366,27.5505074 8.96892366,27.2346337 C8.96892366,27.0090758 9.10277863,26.91876 9.28140458,26.91876 C9.50445802,26.91876 9.549,27.0541179 9.68296947,27.0541179 C9.77216794,27.0541179 9.81682443,27.0090758 9.81682443,26.91876 C9.81682443,26.6932021 9.50445802,26.5126863 9.1920916,26.5126863 C8.87972519,26.5126863 8.56735878,26.7382442 8.56735878,27.1444337 C8.56735878,27.1894758 8.56735878,27.3699916 8.65655725,27.5505074 L8.52281679,27.5505074 C7.94274046,27.5505074 7.54106107,27.9115389 7.54106107,28.3627705 C7.54106107,28.7236863 7.67491603,28.8590442 7.80877099,28.8590442 C8.03193893,28.8590442 7.94274046,28.6786442 7.94274046,28.4529705 C7.94274046,28.0919389 8.25499237,27.9565811 8.61201527,27.9565811 C9.50445802,27.9565811 10.2630458,28.8590442 10.2630458,29.9871811 C10.2630458,31.3408758 9.23674809,32.2433389 7.67491603,32.2433389 C5.84548855,32.2433389 4.46216794,30.8896442 4.46216794,28.9944021 C4.46216794,27.1444337 5.53312214,25.8809389 6.7379313,24.7529179 L7.76422901,23.7602547 C9.05823664,22.5419179 9.59365649,21.2784232 9.59365649,19.6991705 C9.59365649,17.9844442 8.56735878,16.0893179 6.42556489,15.1416968 C6.87178626,15.0063389 7.13949618,14.5551074 7.13949618,14.0136758 C7.13949618,13.6526442 7.00564122,13.4270863 7.00564122,13.1562547 C7.00564122,12.6148232 7.31800763,12.2989495 7.76422901,12.2989495 C8.16579389,12.2989495 8.43350382,12.6148232 8.43350382,12.9306968 C8.43350382,13.2014126 8.25499237,13.4270863 7.94274046,13.4270863 C7.80877099,13.4270863 7.71957252,13.4270863 7.71957252,13.5624442 C7.71957252,13.6978021 7.85342748,13.74296 8.03193893,13.74296 C8.56735878,13.74296 8.83518321,13.2917284 8.83518321,13.0660547 C8.92438168,13.1112126 9.01358015,13.1562547 9.14743511,13.1562547 C9.45980153,13.1562547 9.68296947,12.9306968 9.68296947,12.6148232 C9.68296947,12.5246232 9.63831298,12.3892653 9.50445802,12.3892653 C9.41514504,12.3892653 9.37060305,12.4794653 9.37060305,12.5697811 C9.37060305,12.7050232 9.28140458,12.7953389 9.14743511,12.7953389 C8.96892366,12.7953389 8.83518321,12.6599811 8.74587023,12.4794653 C8.56735878,12.1635916 8.21033588,11.8928758 7.76422901,11.8928758 C7.18415267,11.8928758 6.7379313,12.2989495 6.64861832,12.8404968 C6.3809084,12.5697811 6.06854198,12.2989495 5.62232061,12.0282337 C5.97934351,11.8026758 6.29170992,11.62216 6.64861832,11.3514442 C7.18415267,10.9452547 7.67491603,10.4940232 8.21033588,9.90743368 L10.6646107,7.20016 C12.8065191,4.80864421 14.1897252,4.22193895 15.5283893,4.22193895 C16.688542,4.22193895 17.2686183,4.80864421 17.2686183,5.48543368 C17.2686183,5.98159158 17.0579313,6.34980211 16.7234656,6.53170737 C16.5335038,6.33706526 16.3939237,6.07121263 16.3316336,5.75614947 C16.2869771,5.53059158 16.2423206,5.53059158 16.1976641,5.53059158 C16.1084656,5.53059158 16.1084656,5.62079158 16.1084656,5.71110737 C16.1084656,6.09703368 16.1994962,6.40816 16.3485802,6.64923368 C16.2995725,6.65525474 16.2493053,6.65861263 16.1976641,6.65861263 C15.7514427,6.65861263 15.4837328,6.43305474 15.4837328,6.16233895 C15.4837328,6.11718105 15.4837328,6.02686526 15.5730458,5.93666526 C15.6622443,5.84646526 15.6175878,5.80130737 15.5730458,5.80130737 C15.3945344,5.80130737 15.2160229,6.02686526 15.2160229,6.29769684 C15.2160229,6.61357053 15.4837328,7.06480211 16.2423206,7.06480211 C16.3546489,7.06480211 16.5038473,7.05032842 16.6641527,7.00158105 C16.9158321,7.19645474 17.2260229,7.29036 17.5363282,7.29036 C17.8466336,7.29036 18.1569389,7.19645474 18.4085038,7.00158105 C18.5688092,7.05032842 18.7180076,7.06480211 18.8304504,7.06480211 C19.5890382,7.06480211 19.8566336,6.61357053 19.8566336,6.29769684 C19.8566336,6.02686526 19.6782366,5.80130737 19.4997252,5.80130737 C19.4551832,5.80130737 19.4104122,5.84646526 19.4997252,5.93666526 C19.5890382,6.02686526 19.5890382,6.11718105 19.5890382,6.16233895 C19.5890382,6.43305474 19.3212137,6.65861263 18.8749924,6.65861263 C18.8233511,6.65861263 18.7731985,6.65525474 18.7241908,6.64923368 C18.8732748,6.40816 18.9641908,6.09703368 18.9641908,5.71110737 C18.9641908,5.62079158 18.9641908,5.53059158 18.8749924,5.53059158 C18.8304504,5.53059158 18.7857939,5.53059158 18.7411374,5.75614947 C18.6788473,6.07121263 18.5392672,6.33706526 18.3493053,6.53170737 C18.0147252,6.34980211 17.8041527,5.98159158 17.8041527,5.48543368 C17.8041527,4.80864421 18.384229,4.22193895 19.5443817,4.22193895 C20.8830458,4.22193895 22.2662519,4.80864421 24.4081603,7.20016 L26.8623206,9.90743368 C27.3531985,10.4940232 27.8886183,10.9452547 28.4241527,11.3514442 C28.7810611,11.62216 29.0934275,11.8026758 29.4504504,12.0282337 C29.004229,12.2989495 28.6918626,12.5697811 28.4241527,12.8404968 C28.3348397,12.2989495 27.8886183,11.8928758 27.308542,11.8928758 C26.8623206,11.8928758 26.5052977,12.1635916 26.3269008,12.4794653 C26.2375878,12.6599811 26.1037328,12.7953389 25.9252214,12.7953389 C25.7914809,12.7953389 25.7021679,12.7050232 25.7021679,12.5697811 C25.7021679,12.4794653 25.6575115,12.3892653 25.568313,12.3892653 C25.434458,12.3892653 25.3898015,12.5246232 25.3898015,12.6148232 C25.3898015,12.9306968 25.612855,13.1562547 25.9252214,13.1562547 C26.0590763,13.1562547 26.1483893,13.1112126 26.2375878,13.0660547 C26.2375878,13.2917284 26.5052977,13.74296 27.0408321,13.74296 C27.2193435,13.74296 27.3531985,13.6978021 27.3531985,13.5624442 C27.3531985,13.4270863 27.2638855,13.4270863 27.1300305,13.4270863 C26.8176641,13.4270863 26.6392672,13.2465705 26.6392672,12.9306968 C26.6392672,12.6148232 26.9069771,12.2989495 27.308542,12.2989495 C27.7547634,12.2989495 28.0671298,12.6148232 28.0671298,13.1562547 C28.0671298,13.4270863 27.9332748,13.6526442 27.9332748,14.0136758 C27.9332748,14.5551074 28.2009847,15.0063389 28.6472061,15.1416968 C26.5052977,16.0893179 25.479,17.9844442 25.479,19.6991705 C25.479,21.2784232 26.0145344,22.5419179 27.308542,23.7602547 L28.3348397,24.7529179 C29.5396489,25.8809389 30.6106031,27.1444337 30.6106031,28.9944021 C30.6106031,30.8896442 29.2272824,32.2433389 27.3977405,32.2433389 L27.3977405,32.2433389 Z M17.5363282,40.6361074 C17.1794198,39.91416 16.777855,39.4629284 16.5993435,39.2373705 C17.0455649,39.0568547 17.3579313,38.7409811 17.5363282,38.3799495 C17.7148397,38.7409811 18.0272061,39.0568547 18.4734275,39.2373705 C18.294916,39.4629284 17.8933511,39.91416 17.5363282,40.6361074 L17.5363282,40.6361074 Z M17.9875878,6.78702316 C17.8475496,6.85012842 17.6952595,6.88417053 17.5363282,6.88417053 C17.3773969,6.88417053 17.2252214,6.85012842 17.0851832,6.78702316 C17.259458,6.65363368 17.4206794,6.45852842 17.5363282,6.17716 C17.6520916,6.45852842 17.813313,6.65363368 17.9875878,6.78702316 L17.9875878,6.78702316 Z M31.3245344,27.0541179 C31.0568244,27.0541179 30.8336565,27.1894758 30.744458,27.3699916 C30.3874351,26.5578442 30.0304122,25.7907389 28.4686947,24.3467284 C28.5580076,24.3918863 28.870374,24.4370442 29.0934275,24.4370442 C29.5843053,24.4370442 30.1197252,24.3016863 30.4320916,23.9858126 C30.5212901,24.3016863 30.789,24.4820863 31.1014809,24.4820863 C31.5922443,24.4820863 31.7707557,24.1663284 31.7707557,23.8052968 C31.7707557,23.6699389 31.7260992,23.5345811 31.5922443,23.5345811 C31.3245344,23.5345811 31.5475878,24.0760126 31.1014809,24.0760126 C30.922855,24.0760126 30.789,23.9406547 30.789,23.7150968 C30.789,23.4894232 30.922855,23.2187074 30.922855,22.9028337 C30.922855,22.1808863 30.4766336,21.6844968 29.9412137,21.5491389 C29.6288473,21.4589389 29.4504504,21.2332653 29.4504504,20.9625495 C29.4504504,20.6016337 29.7181603,20.5564758 29.8966718,20.5564758 C30.0750687,20.5564758 30.2090382,20.6016337 30.2090382,20.46616 C30.2090382,20.3308021 30.0750687,20.2406021 29.8073588,20.2406021 C29.4949924,20.2406021 29.048771,20.46616 29.048771,20.9625495 C29.048771,21.1430653 29.0934275,21.3235811 29.2719389,21.5040968 C28.870374,21.5942968 28.5133511,21.9101705 28.5133511,22.40656 C28.5133511,22.7223179 28.6025496,23.0381916 28.8257176,23.0381916 C29.0934275,23.0381916 28.870374,22.8126337 28.870374,22.4516021 C28.870374,22.0455284 29.2272824,21.8650126 29.5843053,21.8650126 C30.0750687,21.8650126 30.5212901,22.3162442 30.5212901,22.9028337 C30.5212901,23.5796232 29.9858702,24.0308547 29.138084,24.0308547 C28.6472061,24.0308547 27.9332748,23.9406547 27.3531985,23.2638653 C26.4160992,22.2260442 25.8806794,21.3235811 25.8806794,19.6991705 C25.8806794,17.6235284 27.3531985,15.8186021 29.4949924,15.2320126 C29.9412137,15.0966547 30.2982366,14.6904653 30.2982366,14.1490337 C30.2982366,13.6978021 30.0304122,13.3368863 29.5843053,13.3368863 C29.4057939,13.3368863 29.2719389,13.3819284 29.2719389,13.5172863 C29.2719389,13.6526442 29.4057939,13.6526442 29.4949924,13.6526442 C29.6735038,13.6526442 29.8966718,13.83316 29.8966718,14.1490337 C29.8966718,14.6002653 29.5396489,14.8709811 29.138084,14.8709811 C28.6472061,14.8709811 28.3348397,14.5099495 28.3348397,14.0136758 C28.3348397,13.0660547 29.4504504,12.4344232 30.2982366,12.0282337 C29.5396489,11.6673179 29.2719389,11.53196 28.6918626,11.0807284 C28.5580076,10.9452547 28.5133511,10.8098968 28.5133511,10.6294968 C28.5133511,10.4038232 28.6472061,10.2233074 28.8257176,10.2233074 C28.9595725,10.2233074 29.048771,10.3136232 29.048771,10.4489811 C29.048771,10.5843389 28.9595725,10.5843389 28.9595725,10.6745389 C28.9595725,10.7648547 29.004229,10.8098968 29.0934275,10.8098968 C29.182626,10.8098968 29.4057939,10.7196968 29.4057939,10.3586653 C29.4057939,10.0879495 29.2272824,9.81723368 28.8257176,9.81723368 C28.4241527,9.81723368 28.1117863,10.1331074 28.1117863,10.5843389 C27.7994198,10.3136232 27.4423969,9.99774947 27.1300305,9.6367179 L25.7021679,8.05746526 C25.3006031,7.60623368 25.5236565,6.74892842 26.1037328,6.74892842 C26.4160992,6.74892842 26.5499542,6.97448632 26.5499542,7.15500211 C26.5499542,7.56107579 26.1483893,7.38056 26.1483893,7.60623368 C26.1483893,7.69643368 26.1930458,7.78663368 26.3269008,7.78663368 C26.6392672,7.78663368 26.9515191,7.56107579 26.9515191,7.10984421 C26.9515191,6.70377053 26.5946107,6.34273895 26.1037328,6.34273895 C25.5236565,6.34273895 25.1220916,6.79397053 25.1220916,7.4257179 L24.6758702,6.92932842 C22.7124733,4.76348632 21.1060992,3.81586526 19.5443817,3.81586526 C18.9641908,3.81586526 18.428771,3.99638105 18.1165191,4.22193895 C17.8486947,3.90618105 17.7148397,3.68050737 17.5363282,3.40979158 C17.3579313,3.68050737 17.2240763,3.90618105 16.9562519,4.22193895 C16.6438855,3.99638105 16.1084656,3.81586526 15.5283893,3.81586526 C13.9665573,3.81586526 12.3602977,4.76348632 10.3969008,6.92932842 L9.95067939,7.4257179 C9.95067939,6.79397053 9.549,6.34273895 8.96892366,6.34273895 C8.47816031,6.34273895 8.1211374,6.70377053 8.1211374,7.10984421 C8.1211374,7.56107579 8.43350382,7.78663368 8.74587023,7.78663368 C8.87972519,7.78663368 8.92438168,7.69643368 8.92438168,7.60623368 C8.92438168,7.38056 8.52281679,7.56107579 8.52281679,7.15500211 C8.52281679,6.97448632 8.65655725,6.74892842 8.96892366,6.74892842 C9.549,6.74892842 9.77216794,7.60623368 9.37060305,8.05746526 L7.94274046,9.6367179 C7.63037405,9.99774947 7.27335115,10.3136232 6.96098473,10.5843389 C6.96098473,10.1331074 6.64861832,9.81723368 6.24705344,9.81723368 C5.84548855,9.81723368 5.6669771,10.0879495 5.6669771,10.3586653 C5.6669771,10.7196968 5.89003053,10.8098968 5.97934351,10.8098968 C6.06854198,10.8098968 6.11319847,10.7648547 6.11319847,10.6745389 C6.11319847,10.5843389 6.0238855,10.5843389 6.0238855,10.4489811 C6.0238855,10.3136232 6.11319847,10.2233074 6.24705344,10.2233074 C6.42556489,10.2233074 6.55941985,10.4038232 6.55941985,10.6294968 C6.55941985,10.8098968 6.51476336,10.9452547 6.3809084,11.0807284 C5.84548855,11.62216 5.53312214,11.6673179 4.77453435,12.0282337 C5.62232061,12.4344232 6.7379313,13.0660547 6.7379313,14.0136758 C6.7379313,14.5099495 6.42556489,14.8709811 5.93468702,14.8709811 C5.53312214,14.8709811 5.17609924,14.6002653 5.17609924,14.1490337 C5.17609924,13.83316 5.39926718,13.6526442 5.57766412,13.6526442 C5.6669771,13.6526442 5.80083206,13.6526442 5.80083206,13.5172863 C5.80083206,13.3819284 5.6669771,13.3368863 5.48846565,13.3368863 C5.04224427,13.3368863 4.77453435,13.6978021 4.77453435,14.1490337 C4.77453435,14.6904653 5.13144275,15.0966547 5.57766412,15.2320126 C7.71957252,15.8636442 9.1920916,17.6235284 9.1920916,19.6991705 C9.1920916,21.3235811 8.61201527,22.1808863 7.71957252,23.2638653 C7.13949618,23.9406547 6.42556489,24.0308547 5.93468702,24.0308547 C5.08690076,24.0308547 4.55136641,23.5796232 4.55136641,22.9028337 C4.55136641,22.3162442 4.99758779,21.8650126 5.48846565,21.8650126 C5.84548855,21.8650126 6.20239695,22.0455284 6.20239695,22.4516021 C6.20239695,22.8126337 5.97934351,23.0381916 6.24705344,23.0381916 C6.47010687,23.0381916 6.55941985,22.7223179 6.55941985,22.40656 C6.55941985,21.9101705 6.20239695,21.5942968 5.80083206,21.5040968 C5.97934351,21.3235811 6.0238855,21.1430653 6.0238855,20.9625495 C6.0238855,20.46616 5.57766412,20.2406021 5.26541221,20.2406021 C4.99758779,20.2406021 4.86373282,20.3308021 4.86373282,20.46616 C4.86373282,20.6016337 4.99758779,20.5564758 5.17609924,20.5564758 C5.35461069,20.5564758 5.62232061,20.6016337 5.62232061,20.9625495 C5.62232061,21.2332653 5.44380916,21.4589389 5.13144275,21.5491389 C4.5960229,21.6844968 4.14980153,22.1808863 4.14980153,22.9028337 C4.14980153,23.2187074 4.28377099,23.4894232 4.28377099,23.7150968 C4.28377099,23.9406547 4.14980153,24.0760126 3.97129008,24.0760126 C3.52518321,24.0760126 3.74823664,23.5345811 3.48052672,23.5345811 C3.34655725,23.5345811 3.30201527,23.6699389 3.30201527,23.8052968 C3.30201527,24.1663284 3.48052672,24.4820863 3.97129008,24.4820863 C4.28377099,24.4820863 4.55136641,24.3016863 4.64067939,23.9858126 C4.9530458,24.3016863 5.48846565,24.4370442 5.97934351,24.4370442 C6.20239695,24.4370442 6.51476336,24.3918863 6.60407634,24.3467284 C5.04224427,25.7907389 4.68522137,26.5578442 4.32831298,27.3699916 C4.239,27.1894758 4.01594656,27.0541179 3.74823664,27.0541179 C3.30201527,27.0541179 3.07896183,27.3249495 3.07896183,27.7310232 C3.07896183,27.8212232 3.07896183,28.0919389 3.30201527,28.0919389 C3.48052672,28.0919389 3.39132824,27.9115389 3.39132824,27.7761811 C3.39132824,27.5956653 3.52518321,27.4603074 3.74823664,27.4603074 C4.10514504,27.4603074 4.19445802,27.7761811 4.10514504,28.2724547 C4.06060305,28.4981284 4.06060305,28.7688442 4.06060305,28.9944021 C4.06060305,31.1152021 5.62232061,32.6494126 7.67491603,32.6494126 C7.98728244,32.6494126 8.25499237,32.6042547 8.56735878,32.5590968 L9.1920916,33.5067179 C8.74587023,33.6420758 8.43350382,34.0481495 8.43350382,34.4993811 C8.43350382,35.0860863 8.87972519,35.5372021 9.45980153,35.5372021 C9.81682443,35.5372021 10.0845344,35.3566863 10.0845344,35.1762863 C10.0845344,35.0409284 9.99522137,34.9957705 9.9060229,34.9957705 C9.77216794,34.9957705 9.77216794,35.1311284 9.45980153,35.1311284 C9.10277863,35.1311284 8.83518321,34.8604126 8.83518321,34.4993811 C8.83518321,34.1384653 9.14743511,33.8677495 9.59365649,33.8677495 C10.4414427,33.8677495 10.8431221,34.8604126 11.4231985,35.8530758 L12.0032748,36.8458547 C12.940374,38.4702653 14.4574351,39.4177705 15.7069008,39.4177705 C15.8854122,39.4177705 16.0638092,39.4177705 16.2423206,39.3727284 C16.777855,39.91416 17.3132748,40.9069389 17.5363282,41.3580547 C17.7594962,40.9069389 18.294916,39.91416 18.8304504,39.3727284 C19.0089618,39.4177705 19.1873588,39.4177705 19.3658702,39.4177705 C20.6152214,39.4177705 22.1323969,38.4702653 23.0694962,36.8458547 L23.6495725,35.8530758 C24.2296489,34.8604126 24.6312137,33.8677495 25.479,33.8677495 C25.9252214,33.8677495 26.2375878,34.1384653 26.2375878,34.4993811 C26.2375878,34.8604126 25.9698779,35.1311284 25.612855,35.1311284 C25.3006031,35.1311284 25.3006031,34.9957705 25.1666336,34.9957705 C25.0774351,34.9957705 24.9882366,35.0409284 24.9882366,35.1762863 C24.9882366,35.3566863 25.2559466,35.5372021 25.612855,35.5372021 C26.1930458,35.5372021 26.6392672,35.0860863 26.6392672,34.4993811 C26.6392672,34.0481495 26.3269008,33.6420758 25.8806794,33.5067179 L26.5052977,32.5590968 C26.8176641,32.6042547 27.0854885,32.6494126 27.3977405,32.6494126 C29.4504504,32.6494126 31.0121679,31.1152021 31.0121679,28.9944021 C31.0121679,28.7688442 31.0121679,28.4981284 30.9675115,28.2724547 C30.878313,27.7761811 30.9675115,27.4603074 31.3245344,27.4603074 C31.5475878,27.4603074 31.6814427,27.5956653 31.6814427,27.7761811 C31.6814427,27.9115389 31.5922443,28.0919389 31.7707557,28.0919389 C31.9938092,28.0919389 31.9938092,27.8212232 31.9938092,27.7310232 C31.9938092,27.3249495 31.7707557,27.0541179 31.3245344,27.0541179 L31.3245344,27.0541179 Z M30.1643817,34.8152547 C28.2009847,36.8458547 25.3006031,38.2897495 22.5339618,39.6434442 C20.7045344,40.5459074 18.9196489,41.4483705 17.5363282,42.5312337 C16.1531221,41.4483705 14.3682366,40.5459074 12.5386947,39.6434442 C9.77216794,38.2897495 6.87178626,36.8458547 4.90838931,34.8152547 C2.40957252,32.2433389 1.20476336,29.6261495 1.20476336,26.6480442 C1.20476336,24.1211705 2.18651908,22.0003705 4.41751145,19.1577389 C4.5960229,18.9320653 4.77453435,18.7065074 4.77453435,18.5258758 C4.77453435,18.3454758 4.5960229,17.9844442 4.50682443,17.8040442 L2.94510687,14.3745916 C2.58808397,13.6074863 2.23106107,12.8856547 2.23106107,12.1185495 C2.23106107,11.4868021 2.63274046,11.0355705 3.16816031,10.5843389 L5.39926718,8.55373895 C5.48846565,8.46353895 5.48846565,8.32818105 5.44380916,8.23786526 L4.72987786,6.74892842 C4.64067939,6.56841263 4.64067939,6.43305474 4.77453435,6.34273895 C6.96098473,4.85368632 8.79052672,4.40245474 11.4231985,3.68050737 C13.9220153,3.0037179 16.1531221,2.41701263 17.5363282,1.51466526 C18.9196489,2.41701263 21.1507557,3.0037179 23.6495725,3.68050737 C26.2822443,4.40245474 28.0671298,4.94400211 30.2982366,6.34273895 C30.4320916,6.43305474 30.4320916,6.56841263 30.3428931,6.74892842 L29.6288473,8.23786526 C29.5843053,8.32818105 29.5843053,8.46353895 29.6735038,8.55373895 L31.9046107,10.5843389 C32.4400305,11.0355705 32.8417099,11.4868021 32.8417099,12.1185495 C32.8417099,12.8856547 32.484687,13.6074863 32.1276641,14.3745916 L30.5659466,17.8040442 C30.4766336,17.9844442 30.2982366,18.3454758 30.2982366,18.5258758 C30.2982366,18.7065074 30.4766336,18.9320653 30.6552595,19.1577389 C33.0647634,21.8650126 33.8680076,24.1211705 33.8680076,26.6480442 C33.8680076,29.6261495 32.6631985,32.2433389 30.1643817,34.8152547 L30.1643817,34.8152547 Z M32.2615191,19.2929811 C31.8599542,18.7967074 31.6369008,18.5710337 31.6369008,18.3906337 C31.6369008,18.2100021 31.7707557,17.9394021 31.9046107,17.6235284 L33.2432748,14.6454232 C33.6448397,13.74296 34.0018626,12.9758547 34.0018626,12.0282337 C34.0018626,11.3514442 33.7341527,10.6745389 33.0647634,10.0879495 L31.1460229,8.41838105 C30.9675115,8.28302316 30.9675115,8.05746526 31.0568244,7.87694947 L31.7707557,6.25253895 C31.8152977,6.16233895 31.8152977,6.02686526 31.6814427,5.93666526 C29.4949924,4.44761263 26.9961756,3.54514947 24.6312137,2.86824421 C22.2662519,2.23661263 19.0981603,1.33414947 17.5363282,0.115812632 C15.9746107,1.33414947 12.8065191,2.19145474 10.4414427,2.86824421 C8.07659542,3.54514947 5.57766412,4.44761263 3.39132824,5.93666526 C3.25735878,6.02686526 3.25735878,6.16233895 3.30201527,6.25253895 L4.01594656,7.87694947 C4.10514504,8.05746526 4.10514504,8.28302316 3.92674809,8.41838105 L2.00800763,10.0879495 C1.33861832,10.6745389 1.0709084,11.3514442 1.0709084,12.0282337 C1.0709084,12.9758547 1.4279313,13.74296 1.82949618,14.6454232 L3.16816031,17.6235284 C3.30201527,17.9394021 3.43587023,18.2100021 3.43587023,18.3906337 C3.43587023,18.5710337 3.21270229,18.7967074 2.8111374,19.2929811 C0.803198473,21.8198547 -4.58015267e-05,23.8954968 -4.58015267e-05,26.6480442 C-4.58015267e-05,30.4834547 1.87415267,33.4165179 4.01594656,35.6275179 C6.20239695,37.8836758 9.23674809,39.3727284 12.0032748,40.7263074 C13.8328168,41.6287705 15.7514427,42.5312337 17.5363282,43.9752442 C19.3212137,42.5312337 21.2399542,41.6287705 23.0694962,40.7263074 C25.8360229,39.3727284 28.914916,37.8836758 31.0568244,35.6275179 C33.1986183,33.4165179 35.0727023,30.4834547 35.0727023,26.6480442 C35.0727023,23.8954968 34.2695725,21.8198547 32.2615191,19.2929811 L32.2615191,19.2929811 Z" id="Fill-12"></path>
                    </g>
                </g>
            </g>
        </g>
    </g>
</svg>